<svg width="225" height="23" viewBox="0 0 225 23" fill="none" xmlns="http://www.w3.org/2000/svg">
<path fill-rule="evenodd" clip-rule="evenodd" d="M15.2632 0.397949H5.08772V5.44897H0V15.551H5.08772V20.602H15.2632V15.551H20.3509V5.44897H15.2632V0.397949ZM13.7368 6.96428H6.61404V14.0357H13.7368V6.96428Z" fill="url(#paint0_linear_1945_476)"/>
<path d="M29.4876 8.88904V15.516C29.4876 18.8018 31.2955 20.4862 34.0769 20.4862C34.8835 20.4862 35.6345 20.3205 36.3298 19.9892L35.5788 17.5593C35.1616 17.8078 34.7166 17.9459 34.2438 17.9459C32.9921 17.9459 32.3802 17.2003 32.3802 15.6817V8.88904H36.0238V6.34872H32.3802V0.71582L29.4876 2.51062V6.34872H27.1514V8.88904H29.4876ZM40.8365 15.1018C40.8365 13.0309 41.1981 11.457 41.949 10.3525C42.6999 9.22039 43.59 8.66815 44.619 8.66815C45.2587 8.66815 45.815 8.80621 46.26 9.08233L46.7606 6.45917C46.2044 6.23827 45.6203 6.12782 44.9806 6.12782C43.4231 6.12782 41.7543 7.03902 40.8365 8.66815V6.34872H37.9439V20.2653H40.8365V15.1018ZM46.4669 16.2615C46.4669 19.0227 48.3025 20.4862 50.7779 20.4862C52.697 20.4862 54.1432 19.7959 55.1167 18.4429L55.3948 20.2653H57.8424V11.6227C57.8424 7.95023 55.9789 6.12782 52.252 6.12782C49.5819 6.12782 47.5516 7.61888 46.9675 9.96592L49.6097 10.5182C50.0826 9.27562 50.9448 8.66815 52.2242 8.66815C53.8095 8.66815 54.9498 9.44129 54.9498 11.098V11.7055H52.5301C48.8866 11.7055 46.4669 13.4175 46.4669 16.2615ZM49.5263 16.2615C49.5263 14.9361 50.6388 14.1078 52.4188 14.1078H54.9498V14.4115C54.9498 15.5436 54.5883 16.3996 53.8373 17.0347C53.1142 17.6421 52.252 17.9459 51.2785 17.9459C50.1382 17.9459 49.5263 17.2556 49.5263 16.2615ZM60.2597 20.2653H63.1522V14.6324C63.1522 12.81 63.5138 11.3741 64.2091 10.2973C64.9323 9.22039 65.7666 8.66815 66.7401 8.66815C68.1864 8.66815 68.9095 9.52413 68.9095 11.2085V20.2653H71.802V10.2973C71.802 7.64649 70.1611 6.12782 67.6857 6.12782C65.8223 6.12782 64.1535 7.06664 63.1522 8.72337V6.34872H60.2597V20.2653ZM78.7115 6.12782C77.4599 6.12782 76.4308 6.51439 75.6243 7.28753C74.8177 8.03306 74.4005 8.97188 74.4005 10.0764C74.4005 11.7883 75.4018 13.0585 77.4043 13.8869C77.8493 14.0801 78.8784 14.4391 79.2956 14.6324C79.5181 14.7152 79.7684 14.8533 80.0187 15.019C80.5472 15.3227 80.7418 15.654 80.7418 16.1235C80.7418 17.3384 80.1021 17.9459 78.8506 17.9459C77.5434 17.9459 76.5143 17.1175 75.7633 15.4331L73.3158 16.7585C74.178 18.7742 76.0693 20.4862 78.7393 20.4862C80.2134 20.4862 81.3815 20.072 82.2715 19.216C83.1616 18.36 83.6066 17.3108 83.6066 16.0682C83.4953 14.5496 82.9669 13.7212 81.8544 13.0585C81.0756 12.5339 80.6584 12.3958 79.6849 12.0368C78.489 11.595 78.0162 11.3741 77.5434 10.9047C77.293 10.6562 77.1818 10.3525 77.1818 10.0488C77.1818 9.16517 77.7937 8.66815 78.5724 8.66815C79.5459 8.66815 80.3525 9.08233 81.02 9.93831L82.8556 8.3368C81.9656 6.9838 80.4081 6.12782 78.7115 6.12782ZM85.8726 8.88904V20.2653H88.7652V8.88904H91.8524V6.34872H88.7652V5.43751C88.7652 3.97406 89.4049 3.25615 90.6564 3.25615C91.2405 3.25615 91.7968 3.39421 92.2974 3.64272L92.8815 1.21284C92.2418 0.881494 91.4908 0.71582 90.573 0.71582C87.6527 0.71582 85.8726 2.34494 85.8726 5.6308V6.34872H84.0648V8.88904H85.8726ZM98.6693 8.66815C100.644 8.66815 101.812 9.96592 102.062 11.7055H95.2483C95.582 9.9107 96.8058 8.66815 98.6693 8.66815ZM105.122 12.8652C105.122 9.74502 103.147 6.12782 98.6693 6.12782C94.0523 6.12782 92.1332 9.99353 92.1332 13.307C92.1332 16.6205 94.0523 20.4862 98.6693 20.4862C101.756 20.4862 103.397 19.2989 104.816 16.5652L102.341 15.5988C101.645 17.0623 100.227 17.9459 98.6693 17.9459C96.472 17.9459 95.1927 16.2891 95.1927 14.1078H105.122V12.8652ZM109.576 15.1018C109.576 13.0309 109.937 11.457 110.688 10.3525C111.439 9.22039 112.329 8.66815 113.358 8.66815C113.998 8.66815 114.554 8.80621 114.999 9.08233L115.5 6.45917C114.944 6.23827 114.359 6.12782 113.72 6.12782C112.162 6.12782 110.493 7.03902 109.576 8.66815V6.34872H106.683V20.2653H109.576V15.1018Z" fill="white"/>
<path d="M123.348 20V9.99H127.24C129.998 9.99 131.692 11.782 131.692 15.002C131.692 18.222 130.054 20 127.282 20H123.348ZM125.014 11.404V18.586H127.156C129.396 18.586 130.026 16.92 130.026 15.002C130.026 13.084 129.396 11.404 127.156 11.404H125.014ZM136.794 20.21C134.554 20.21 133.196 18.656 133.196 16.43C133.196 14.204 134.554 12.65 136.794 12.65C139.034 12.65 140.392 14.204 140.392 16.43C140.392 18.656 139.034 20.21 136.794 20.21ZM136.794 19.006C138.194 19.006 138.922 17.9 138.922 16.43C138.922 14.946 138.194 13.854 136.794 13.854C135.394 13.854 134.666 14.946 134.666 16.43C134.666 17.9 135.394 19.006 136.794 19.006ZM147.036 15.464C146.98 14.736 146.518 13.854 145.258 13.854C143.816 13.854 143.2 15.086 143.2 16.43C143.2 17.774 143.802 19.006 145.258 19.006C146.518 19.006 146.98 18.138 147.036 17.34H148.506C148.394 18.992 147.12 20.21 145.258 20.21C143.116 20.21 141.73 18.67 141.73 16.43C141.73 14.19 143.116 12.65 145.244 12.65C147.106 12.65 148.324 13.84 148.506 15.464H147.036ZM154.881 12.846H156.351V20H154.881V19.076H154.853C154.475 19.636 153.733 20.196 152.501 20.196C151.171 20.196 150.121 19.426 150.121 17.788V12.846H151.605V17.368C151.605 18.334 152.011 18.95 153.019 18.95C154.153 18.95 154.881 18.264 154.881 17.2V12.846ZM166.347 12.65C167.789 12.65 168.531 13.518 168.531 15.058V20H167.047V15.478C167.047 14.512 166.851 13.896 165.843 13.896C164.849 13.896 164.233 14.582 164.233 15.646V20H162.749V15.478C162.749 14.512 162.553 13.896 161.531 13.896C160.551 13.896 159.921 14.582 159.921 15.646V20H158.451V12.846H159.921V13.77H159.949C160.327 13.21 160.999 12.65 162.077 12.65C163.085 12.65 163.687 13.112 163.981 13.882H164.009C164.541 13.196 165.241 12.65 166.347 12.65ZM173.759 19.006C174.977 19.006 175.467 18.25 175.593 17.816H177.063C176.699 19.174 175.635 20.21 173.801 20.21C171.575 20.21 170.217 18.67 170.217 16.43C170.217 14.106 171.575 12.65 173.731 12.65C176.041 12.65 177.175 14.26 177.175 16.808H171.687C171.687 18.012 172.457 19.006 173.759 19.006ZM173.731 13.812C172.541 13.812 171.687 14.61 171.687 15.716H175.705C175.705 14.61 174.921 13.812 173.731 13.812ZM182.733 12.65C184.063 12.65 185.113 13.42 185.113 15.058V20H183.629V15.478C183.629 14.512 183.223 13.896 182.215 13.896C181.081 13.896 180.353 14.582 180.353 15.646V20H178.883V12.846H180.353V13.77H180.381C180.759 13.21 181.501 12.65 182.733 12.65ZM190.436 14.05H189.092V17.928C189.092 18.74 189.484 18.838 190.436 18.782V19.986C190.142 20.056 189.82 20.098 189.428 20.098C188.252 20.098 187.608 19.566 187.608 18.054V14.05H186.572V12.846H187.608V10.592H189.092V12.846H190.436V14.05ZM196.572 14.722C196.572 14.204 196.264 13.812 195.284 13.812C194.108 13.812 193.674 14.176 193.604 15.1H192.176C192.246 13.728 193.128 12.65 195.284 12.65C196.866 12.65 198.042 13.252 198.042 15.156V18.558C198.042 19.062 198.154 19.328 198.728 19.272V19.972C198.392 20.098 198.154 20.126 197.874 20.126C197.09 20.126 196.726 19.846 196.586 19.146H196.558C196.11 19.776 195.298 20.21 194.192 20.21C192.736 20.21 191.84 19.37 191.84 18.166C191.84 16.598 193.002 16.108 194.794 15.758C195.9 15.548 196.572 15.408 196.572 14.722ZM194.514 19.048C195.732 19.048 196.572 18.446 196.572 17.284V16.206C196.334 16.374 195.76 16.542 195.074 16.682C193.856 16.948 193.324 17.298 193.324 18.026C193.324 18.684 193.716 19.048 194.514 19.048ZM203.567 14.05H202.223V17.928C202.223 18.74 202.615 18.838 203.567 18.782V19.986C203.273 20.056 202.951 20.098 202.559 20.098C201.383 20.098 200.739 19.566 200.739 18.054V14.05H199.703V12.846H200.739V10.592H202.223V12.846H203.567V14.05ZM206.161 11.642C205.755 11.642 205.335 11.362 205.335 10.858C205.335 10.354 205.755 10.088 206.161 10.088C206.595 10.088 207.001 10.354 207.001 10.858C207.001 11.362 206.595 11.642 206.161 11.642ZM205.433 12.846H206.903V20H205.433V12.846ZM212.317 20.21C210.077 20.21 208.719 18.656 208.719 16.43C208.719 14.204 210.077 12.65 212.317 12.65C214.557 12.65 215.915 14.204 215.915 16.43C215.915 18.656 214.557 20.21 212.317 20.21ZM212.317 19.006C213.717 19.006 214.445 17.9 214.445 16.43C214.445 14.946 213.717 13.854 212.317 13.854C210.917 13.854 210.189 14.946 210.189 16.43C210.189 17.9 210.917 19.006 212.317 19.006ZM221.481 12.65C222.811 12.65 223.861 13.42 223.861 15.058V20H222.377V15.478C222.377 14.512 221.971 13.896 220.963 13.896C219.829 13.896 219.101 14.582 219.101 15.646V20H217.631V12.846H219.101V13.77H219.129C219.507 13.21 220.249 12.65 221.481 12.65Z" fill="#A9A9A9"/>
<defs>
<linearGradient id="paint0_linear_1945_476" x1="0.678362" y1="-0.612254" x2="22.2313" y2="20.758" gradientUnits="userSpaceOnUse">
<stop stop-color="#7C56E9"/>
<stop offset="1" stop-color="#9B40E2"/>
</linearGradient>
</defs>
</svg>
