<svg width="225" height="23" viewBox="0 0 225 23" fill="none" xmlns="http://www.w3.org/2000/svg">
<path fill-rule="evenodd" clip-rule="evenodd" d="M15.2632 0H5.08772V5.05102H0V15.1531H5.08772V20.2041H15.2632V15.1531H20.3509V5.05102H15.2632V0ZM13.7368 6.56633H6.61404V13.6378H13.7368V6.56633Z" fill="url(#paint0_linear_1945_477)"/>
<path d="M29.4876 8.4911V15.118C29.4876 18.4039 31.2955 20.0882 34.0769 20.0882C34.8835 20.0882 35.6345 19.9226 36.3298 19.5912L35.5788 17.1613C35.1616 17.4098 34.7166 17.5479 34.2438 17.5479C32.9921 17.5479 32.3802 16.8024 32.3802 15.2837V8.4911H36.0238V5.95077H32.3802V0.317871L29.4876 2.11267V5.95077H27.1514V8.4911H29.4876ZM40.8365 14.7039C40.8365 12.6329 41.1981 11.059 41.949 9.95454C42.6999 8.82244 43.59 8.2702 44.619 8.2702C45.2587 8.2702 45.815 8.40826 46.26 8.68438L46.7606 6.06122C46.2044 5.84032 45.6203 5.72987 44.9806 5.72987C43.4231 5.72987 41.7543 6.64108 40.8365 8.2702V5.95077H37.9439V19.8673H40.8365V14.7039ZM46.4669 15.8636C46.4669 18.6248 48.3025 20.0882 50.7779 20.0882C52.697 20.0882 54.1432 19.3979 55.1167 18.0449L55.3948 19.8673H57.8424V11.2247C57.8424 7.55228 55.9789 5.72987 52.252 5.72987C49.5819 5.72987 47.5516 7.22093 46.9675 9.56797L49.6097 10.1202C50.0826 8.87767 50.9448 8.2702 52.2242 8.2702C53.8095 8.2702 54.9498 9.04334 54.9498 10.7001V11.3075H52.5301C48.8866 11.3075 46.4669 13.0195 46.4669 15.8636ZM49.5263 15.8636C49.5263 14.5382 50.6388 13.7098 52.4188 13.7098H54.9498V14.0135C54.9498 15.1456 54.5883 16.0016 53.8373 16.6367C53.1142 17.2442 52.252 17.5479 51.2785 17.5479C50.1382 17.5479 49.5263 16.8576 49.5263 15.8636ZM60.2597 19.8673H63.1522V14.2344C63.1522 12.412 63.5138 10.9762 64.2091 9.89932C64.9323 8.82244 65.7666 8.2702 66.7401 8.2702C68.1864 8.2702 68.9095 9.12618 68.9095 10.8105V19.8673H71.802V9.89932C71.802 7.24854 70.1611 5.72987 67.6857 5.72987C65.8223 5.72987 64.1535 6.66869 63.1522 8.32542V5.95077H60.2597V19.8673ZM78.7115 5.72987C77.4599 5.72987 76.4308 6.11644 75.6243 6.88958C74.8177 7.63512 74.4005 8.57393 74.4005 9.67842C74.4005 11.3904 75.4018 12.6605 77.4043 13.4889C77.8493 13.6822 78.8784 14.0412 79.2956 14.2344C79.5181 14.3173 79.7684 14.4553 80.0187 14.621C80.5472 14.9247 80.7418 15.2561 80.7418 15.7255C80.7418 16.9404 80.1021 17.5479 78.8506 17.5479C77.5434 17.5479 76.5143 16.7195 75.7633 15.0352L73.3158 16.3606C74.178 18.3763 76.0693 20.0882 78.7393 20.0882C80.2134 20.0882 81.3815 19.6741 82.2715 18.8181C83.1616 17.9621 83.6066 16.9128 83.6066 15.6703C83.4953 14.1516 82.9669 13.3232 81.8544 12.6605C81.0756 12.1359 80.6584 11.9978 79.6849 11.6389C78.489 11.1971 78.0162 10.9762 77.5434 10.5068C77.293 10.2583 77.1818 9.95454 77.1818 9.65081C77.1818 8.76722 77.7937 8.2702 78.5724 8.2702C79.5459 8.2702 80.3525 8.68438 81.02 9.54036L82.8556 7.93885C81.9656 6.58585 80.4081 5.72987 78.7115 5.72987ZM85.8726 8.4911V19.8673H88.7652V8.4911H91.8524V5.95077H88.7652V5.03956C88.7652 3.57612 89.4049 2.8582 90.6564 2.8582C91.2405 2.8582 91.7968 2.99626 92.2974 3.24477L92.8815 0.814891C92.2418 0.483544 91.4908 0.317871 90.573 0.317871C87.6527 0.317871 85.8726 1.94699 85.8726 5.23285V5.95077H84.0648V8.4911H85.8726ZM98.6693 8.2702C100.644 8.2702 101.812 9.56797 102.062 11.3075H95.2483C95.582 9.51275 96.8058 8.2702 98.6693 8.2702ZM105.122 12.4673C105.122 9.34707 103.147 5.72987 98.6693 5.72987C94.0523 5.72987 92.1332 9.59558 92.1332 12.9091C92.1332 16.2225 94.0523 20.0882 98.6693 20.0882C101.756 20.0882 103.397 18.9009 104.816 16.1673L102.341 15.2009C101.645 16.6643 100.227 17.5479 98.6693 17.5479C96.472 17.5479 95.1927 15.8912 95.1927 13.7098H105.122V12.4673ZM109.576 14.7039C109.576 12.6329 109.937 11.059 110.688 9.95454C111.439 8.82244 112.329 8.2702 113.358 8.2702C113.998 8.2702 114.554 8.40826 114.999 8.68438L115.5 6.06122C114.944 5.84032 114.359 5.72987 113.72 5.72987C112.162 5.72987 110.493 6.64108 109.576 8.2702V5.95077H106.683V19.8673H109.576V14.7039Z" fill="black"/>
<path d="M123.348 19.6021V9.59205H127.24C129.998 9.59205 131.692 11.3841 131.692 14.6041C131.692 17.8241 130.054 19.6021 127.282 19.6021H123.348ZM125.014 11.0061V18.1881H127.156C129.396 18.1881 130.026 16.5221 130.026 14.6041C130.026 12.6861 129.396 11.0061 127.156 11.0061H125.014ZM136.794 19.8121C134.554 19.8121 133.196 18.2581 133.196 16.0321C133.196 13.8061 134.554 12.2521 136.794 12.2521C139.034 12.2521 140.392 13.8061 140.392 16.0321C140.392 18.2581 139.034 19.8121 136.794 19.8121ZM136.794 18.6081C138.194 18.6081 138.922 17.5021 138.922 16.0321C138.922 14.5481 138.194 13.4561 136.794 13.4561C135.394 13.4561 134.666 14.5481 134.666 16.0321C134.666 17.5021 135.394 18.6081 136.794 18.6081ZM147.036 15.0661C146.98 14.3381 146.518 13.4561 145.258 13.4561C143.816 13.4561 143.2 14.6881 143.2 16.0321C143.2 17.3761 143.802 18.6081 145.258 18.6081C146.518 18.6081 146.98 17.7401 147.036 16.9421H148.506C148.394 18.5941 147.12 19.8121 145.258 19.8121C143.116 19.8121 141.73 18.2721 141.73 16.0321C141.73 13.7921 143.116 12.2521 145.244 12.2521C147.106 12.2521 148.324 13.4421 148.506 15.0661H147.036ZM154.881 12.4481H156.351V19.6021H154.881V18.6781H154.853C154.475 19.2381 153.733 19.7981 152.501 19.7981C151.171 19.7981 150.121 19.0281 150.121 17.3901V12.4481H151.605V16.9701C151.605 17.9361 152.011 18.5521 153.019 18.5521C154.153 18.5521 154.881 17.8661 154.881 16.8021V12.4481ZM166.347 12.2521C167.789 12.2521 168.531 13.1201 168.531 14.6601V19.6021H167.047V15.0801C167.047 14.1141 166.851 13.4981 165.843 13.4981C164.849 13.4981 164.233 14.1841 164.233 15.2481V19.6021H162.749V15.0801C162.749 14.1141 162.553 13.4981 161.531 13.4981C160.551 13.4981 159.921 14.1841 159.921 15.2481V19.6021H158.451V12.4481H159.921V13.3721H159.949C160.327 12.8121 160.999 12.2521 162.077 12.2521C163.085 12.2521 163.687 12.7141 163.981 13.4841H164.009C164.541 12.7981 165.241 12.2521 166.347 12.2521ZM173.759 18.6081C174.977 18.6081 175.467 17.8521 175.593 17.4181H177.063C176.699 18.7761 175.635 19.8121 173.801 19.8121C171.575 19.8121 170.217 18.2721 170.217 16.0321C170.217 13.7081 171.575 12.2521 173.731 12.2521C176.041 12.2521 177.175 13.8621 177.175 16.4101H171.687C171.687 17.6141 172.457 18.6081 173.759 18.6081ZM173.731 13.4141C172.541 13.4141 171.687 14.2121 171.687 15.3181H175.705C175.705 14.2121 174.921 13.4141 173.731 13.4141ZM182.733 12.2521C184.063 12.2521 185.113 13.0221 185.113 14.6601V19.6021H183.629V15.0801C183.629 14.1141 183.223 13.4981 182.215 13.4981C181.081 13.4981 180.353 14.1841 180.353 15.2481V19.6021H178.883V12.4481H180.353V13.3721H180.381C180.759 12.8121 181.501 12.2521 182.733 12.2521ZM190.436 13.6521H189.092V17.5301C189.092 18.3421 189.484 18.4401 190.436 18.3841V19.5881C190.142 19.6581 189.82 19.7001 189.428 19.7001C188.252 19.7001 187.608 19.1681 187.608 17.6561V13.6521H186.572V12.4481H187.608V10.1941H189.092V12.4481H190.436V13.6521ZM196.572 14.3241C196.572 13.8061 196.264 13.4141 195.284 13.4141C194.108 13.4141 193.674 13.7781 193.604 14.7021H192.176C192.246 13.3301 193.128 12.2521 195.284 12.2521C196.866 12.2521 198.042 12.8541 198.042 14.7581V18.1601C198.042 18.6641 198.154 18.9301 198.728 18.8741V19.5741C198.392 19.7001 198.154 19.7281 197.874 19.7281C197.09 19.7281 196.726 19.4481 196.586 18.7481H196.558C196.11 19.3781 195.298 19.8121 194.192 19.8121C192.736 19.8121 191.84 18.9721 191.84 17.7681C191.84 16.2001 193.002 15.7101 194.794 15.3601C195.9 15.1501 196.572 15.0101 196.572 14.3241ZM194.514 18.6501C195.732 18.6501 196.572 18.0481 196.572 16.8861V15.8081C196.334 15.9761 195.76 16.1441 195.074 16.2841C193.856 16.5501 193.324 16.9001 193.324 17.6281C193.324 18.2861 193.716 18.6501 194.514 18.6501ZM203.567 13.6521H202.223V17.5301C202.223 18.3421 202.615 18.4401 203.567 18.3841V19.5881C203.273 19.6581 202.951 19.7001 202.559 19.7001C201.383 19.7001 200.739 19.1681 200.739 17.6561V13.6521H199.703V12.4481H200.739V10.1941H202.223V12.4481H203.567V13.6521ZM206.161 11.2441C205.755 11.2441 205.335 10.9641 205.335 10.46C205.335 9.95605 205.755 9.69005 206.161 9.69005C206.595 9.69005 207.001 9.95605 207.001 10.46C207.001 10.9641 206.595 11.2441 206.161 11.2441ZM205.433 12.4481H206.903V19.6021H205.433V12.4481ZM212.317 19.8121C210.077 19.8121 208.719 18.2581 208.719 16.0321C208.719 13.8061 210.077 12.2521 212.317 12.2521C214.557 12.2521 215.915 13.8061 215.915 16.0321C215.915 18.2581 214.557 19.8121 212.317 19.8121ZM212.317 18.6081C213.717 18.6081 214.445 17.5021 214.445 16.0321C214.445 14.5481 213.717 13.4561 212.317 13.4561C210.917 13.4561 210.189 14.5481 210.189 16.0321C210.189 17.5021 210.917 18.6081 212.317 18.6081ZM221.481 12.2521C222.811 12.2521 223.861 13.0221 223.861 14.6601V19.6021H222.377V15.0801C222.377 14.1141 221.971 13.4981 220.963 13.4981C219.829 13.4981 219.101 14.1841 219.101 15.2481V19.6021H217.631V12.4481H219.101V13.3721H219.129C219.507 12.8121 220.249 12.2521 221.481 12.2521Z" fill="#A9A9A9"/>
<defs>
<linearGradient id="paint0_linear_1945_477" x1="0.678362" y1="-1.0102" x2="22.2313" y2="20.3601" gradientUnits="userSpaceOnUse">
<stop stop-color="#7C56E9"/>
<stop offset="1" stop-color="#9B40E2"/>
</linearGradient>
</defs>
</svg>
