<svg width="1600" height="900" viewBox="0 0 1600 900" fill="none" xmlns="http://www.w3.org/2000/svg">
<g clip-path="url(#clip0_1945_485)">
<rect width="1600" height="900" rx="12" fill="#0B0C0B"/>
<g opacity="0.5" filter="url(#filter0_f_1945_485)">
<ellipse cx="1307" cy="-71.4998" rx="472" ry="400.5" transform="rotate(-164.58 1307 -71.4998)" fill="url(#paint0_linear_1945_485)"/>
</g>
<path fill-rule="evenodd" clip-rule="evenodd" d="M503.518 380H432.506V415.25H397V485.75H432.506V521H503.518V485.75H539.024V415.25H503.518V380ZM492.866 425.825H443.158V475.175H492.866V425.825Z" fill="url(#paint1_linear_1945_485)"/>
<path d="M602.789 439.258V485.506C602.789 508.437 615.405 520.192 634.816 520.192C640.445 520.192 645.686 519.036 650.539 516.723L645.298 499.766C642.386 501.5 639.281 502.464 635.981 502.464C627.245 502.464 622.975 497.261 622.975 486.662V439.258H648.403V421.53H622.975V382.219L602.789 394.744V421.53H586.484V439.258H602.789ZM681.99 482.615C681.99 468.163 684.513 457.179 689.754 449.471C694.995 441.57 701.206 437.716 708.387 437.716C712.852 437.716 716.734 438.68 719.839 440.607L723.333 422.3C719.451 420.759 715.375 419.988 710.911 419.988C700.041 419.988 688.395 426.347 681.99 437.716V421.53H661.803V518.65H681.99V482.615ZM721.283 490.709C721.283 509.979 734.094 520.192 751.369 520.192C764.762 520.192 774.855 515.374 781.648 505.932L783.589 518.65H800.67V458.335C800.67 432.706 787.666 419.988 761.656 419.988C743.023 419.988 728.853 430.394 724.777 446.773L743.217 450.627C746.516 441.956 752.533 437.716 761.462 437.716C772.526 437.716 780.484 443.112 780.484 454.674V458.913H763.597C738.17 458.913 721.283 470.861 721.283 490.709ZM742.634 490.709C742.634 481.459 750.398 475.678 762.821 475.678H780.484V477.798C780.484 485.699 777.961 491.672 772.72 496.104C767.673 500.344 761.656 502.464 754.863 502.464C746.905 502.464 742.634 497.646 742.634 490.709ZM817.54 518.65H837.727V479.34C837.727 466.621 840.25 456.601 845.103 449.086C850.149 441.57 855.972 437.716 862.766 437.716C872.859 437.716 877.906 443.69 877.906 455.445V518.65H898.092V449.086C898.092 430.586 886.64 419.988 869.365 419.988C856.36 419.988 844.714 426.54 837.727 438.102V421.53H817.54V518.65ZM946.312 419.988C937.577 419.988 930.395 422.686 924.766 428.081C919.138 433.284 916.226 439.836 916.226 447.544C916.226 459.491 923.214 468.356 937.189 474.137C940.294 475.486 947.476 477.991 950.388 479.34C951.94 479.918 953.687 480.881 955.434 482.037C959.122 484.157 960.481 486.469 960.481 489.745C960.481 498.224 956.017 502.464 947.282 502.464C938.159 502.464 930.978 496.683 925.737 484.928L908.656 494.177C914.673 508.245 927.872 520.192 946.506 520.192C956.793 520.192 964.945 517.301 971.156 511.328C977.368 505.354 980.473 498.031 980.473 489.36C979.697 478.761 976.009 472.98 968.245 468.356C962.81 464.694 959.899 463.731 953.105 461.226C944.759 458.143 941.459 456.601 938.159 453.325C936.412 451.591 935.636 449.471 935.636 447.351C935.636 441.185 939.906 437.716 945.341 437.716C952.135 437.716 957.763 440.607 962.422 446.581L975.233 435.404C969.021 425.962 958.152 419.988 946.312 419.988ZM996.288 439.258V518.65H1016.47V439.258H1038.02V421.53H1016.47V415.17C1016.47 404.957 1020.94 399.947 1029.67 399.947C1033.75 399.947 1037.63 400.911 1041.12 402.645L1045.2 385.687C1040.74 383.375 1035.5 382.219 1029.09 382.219C1008.71 382.219 996.288 393.588 996.288 416.519V421.53H983.671V439.258H996.288ZM1085.59 437.716C1099.37 437.716 1107.53 446.773 1109.27 458.913H1061.72C1064.05 446.388 1072.59 437.716 1085.59 437.716ZM1130.62 467.007C1130.62 445.232 1116.84 419.988 1085.59 419.988C1053.37 419.988 1039.98 446.966 1039.98 470.09C1039.98 493.214 1053.37 520.192 1085.59 520.192C1107.14 520.192 1118.59 511.906 1128.49 492.829L1111.21 486.084C1106.36 496.297 1096.46 502.464 1085.59 502.464C1070.26 502.464 1061.33 490.902 1061.33 475.678H1130.62V467.007ZM1161.71 482.615C1161.71 468.163 1164.23 457.179 1169.47 449.471C1174.71 441.57 1180.92 437.716 1188.1 437.716C1192.57 437.716 1196.45 438.68 1199.56 440.607L1203.05 422.3C1199.17 420.759 1195.09 419.988 1190.63 419.988C1179.76 419.988 1168.11 426.347 1161.71 437.716V421.53H1141.52V518.65H1161.71V482.615Z" fill="white"/>
<g opacity="0.5" filter="url(#filter1_f_1945_485)">
<ellipse cx="-91.8296" cy="940.5" rx="562.171" ry="204.5" transform="rotate(-180 -91.8296 940.5)" fill="url(#paint2_linear_1945_485)"/>
</g>
<path d="M420.954 606.2L436.826 606.2C444.25 606.2 449.37 610.168 449.37 617.912C449.37 621.368 447.45 625.144 444.826 626.552C449.05 628.344 451.673 632.632 451.673 637.816C451.673 646.2 446.426 651 437.593 651L420.953 651L420.954 606.2ZM436.186 612.856L427.994 612.856L427.994 623.864L436.186 623.864C440.154 623.864 442.33 622.008 442.33 618.36C442.33 614.712 440.154 612.856 436.186 612.856ZM436.634 630.52L427.994 630.52L427.994 644.344L436.634 644.344C441.818 644.344 444.506 641.912 444.506 637.432C444.506 632.952 441.818 630.52 436.634 630.52ZM466.035 651L459.379 651L459.379 618.744L466.035 618.744L466.035 624.12C468.275 620.28 472.115 618.232 475.571 618.232C477.299 618.232 478.707 618.616 479.667 619L478.515 625.08C477.491 624.44 476.083 624.12 474.739 624.12C470.451 624.12 466.035 628.856 466.035 639.032L466.035 651ZM484.217 609.656C484.217 607.096 486.201 604.984 488.824 604.984C491.449 604.984 493.433 607.096 493.433 609.656C493.433 612.216 491.449 614.2 488.824 614.2C486.201 614.2 484.216 612.216 484.217 609.656ZM485.496 618.744L492.152 618.744L492.152 651L485.496 651L485.496 618.744ZM499.323 634.872C499.323 624.888 504.187 618.232 513.852 618.232C517.051 618.232 521.02 620.216 522.492 622.328L522.492 605.688L529.148 605.688L529.148 651L522.492 651L522.492 647.288C521.404 649.144 517.947 651.512 513.724 651.512C504.187 651.512 499.323 645.176 499.323 634.872ZM506.364 634.872C506.363 641.528 509.82 645.624 514.62 645.624C519.419 645.624 522.876 641.528 522.876 634.872C522.876 628.216 519.419 624.12 514.62 624.12C509.82 624.12 506.364 628.216 506.364 634.872ZM539.068 629.048C539.068 622.328 544.06 618.232 550.588 618.232C552.764 618.232 554.748 618.744 556.476 619.64L562.428 616.44L565.116 621.24L560.764 623.672C561.66 625.208 562.172 627 562.172 629.048C562.172 635.832 557.116 639.864 550.588 639.864C548.668 639.864 546.876 639.48 545.404 638.904C544.252 639.544 543.676 640.504 543.676 641.72C543.676 643.448 544.764 644.216 547.004 644.216L554.108 644.216C560.444 644.216 564.796 647.352 564.796 653.432C564.796 661.432 557.884 664.568 550.652 664.568C542.524 664.568 536.444 660.984 536.444 653.944C536.444 651.192 537.532 648.952 539.196 647.416C538.044 646.264 537.34 644.6 537.34 642.36C537.34 639.48 538.876 637.176 541.244 635.832C539.836 634.104 539.068 631.8 539.068 629.048ZM552.7 649.848L547.516 649.848C546.364 649.848 545.276 649.784 544.252 649.656C543.292 650.68 542.844 651.896 542.844 653.56C542.844 656.76 545.724 658.808 550.652 658.808C555.26 658.808 558.012 657.08 558.012 653.944C558.012 650.872 555.836 649.848 552.7 649.848ZM545.532 629.048C545.532 632.248 547.644 634.296 550.588 634.296C553.596 634.296 555.708 632.248 555.708 629.048C555.708 625.848 553.596 623.8 550.588 623.8C547.644 623.8 545.532 625.848 545.532 629.048ZM583.614 624.12C579.197 624.12 576.445 627.128 575.742 631.16L591.422 631.16C590.846 627.576 588.414 624.12 583.614 624.12ZM598.462 633.848L598.462 636.728L575.613 636.728C575.613 641.464 578.365 645.624 583.613 645.624C587.07 645.624 590.398 643.704 592.061 640.184L597.757 642.424C594.622 648.504 590.974 651.512 583.613 651.512C572.989 651.512 568.573 642.552 568.573 634.872C568.573 627.192 572.99 618.232 583.614 618.232C593.918 618.232 598.462 626.616 598.462 633.848ZM620.503 641.72C620.503 635.064 626.199 631.16 634.456 631.16L640.023 631.16L640.023 629.752C640.023 625.72 637.144 624.12 633.752 624.12C631.128 624.12 628.824 625.528 627.735 628.408L621.655 627.128C622.999 621.688 627.607 618.232 633.815 618.232C641.304 618.232 646.68 621.496 646.68 630.968L646.679 651L641.047 651L640.408 646.776C638.296 649.72 634.967 651.512 630.424 651.512C625.047 651.512 620.503 648.44 620.503 641.72ZM627.544 641.72C627.544 643.896 628.759 645.624 631.575 645.624C635.672 645.624 640.023 643 640.023 637.432L640.023 636.728L634.2 636.728C630.103 636.728 627.544 638.648 627.544 641.72ZM655.441 618.744L662.098 618.744L662.098 624.248C664.402 620.408 668.242 618.232 672.53 618.232C678.162 618.232 682.002 621.624 682.002 627.896L682.002 651L675.346 651L675.346 630.008C675.346 625.656 673.362 624.12 670.353 624.12C666.194 624.12 662.098 629.048 662.098 637.944L662.098 651L655.441 651L655.441 618.744ZM688.761 634.872C688.761 624.888 693.625 618.232 703.289 618.232C706.489 618.232 710.457 620.216 711.929 622.328L711.929 605.688L718.585 605.688L718.585 651L711.929 651L711.929 647.288C710.841 649.144 707.385 651.512 703.161 651.512C693.625 651.512 688.761 645.176 688.761 634.872ZM695.801 634.872C695.801 641.528 699.257 645.624 704.057 645.624C708.857 645.624 712.313 641.528 712.313 634.872C712.313 628.216 708.857 624.12 704.057 624.12C699.257 624.12 695.801 628.216 695.801 634.872ZM746.579 606.2L759.763 606.2C770.515 606.2 780.371 613.496 780.371 628.6C780.371 643.704 770.515 651 759.762 651L746.578 651L746.579 606.2ZM757.715 612.856L753.619 612.856L753.619 644.344L757.714 644.344C765.523 644.344 773.203 640.824 773.203 628.6C773.203 616.376 765.523 612.856 757.715 612.856ZM787.954 606.2L814.514 606.2L814.513 612.856L794.994 612.856L794.994 623.864L810.738 623.864L810.738 630.52L794.994 630.52L794.994 644.344L815.154 644.344L815.154 651L787.953 651L787.954 606.2ZM845.559 606.2L853.43 606.2L841.591 626.936L855.415 651L847.415 651L837.623 633.912L827.83 651L819.83 651L833.655 626.936L821.814 606.2L829.687 606.2L837.623 620.024L845.559 606.2ZM888.816 606.2L895.472 606.2L911.024 651L903.856 651L900.144 639.864L884.143 639.864L880.431 651L873.263 651L888.816 606.2ZM892.144 615.096L886.256 633.208L898.032 633.208L892.144 615.096ZM917.193 629.048C917.193 622.328 922.185 618.232 928.713 618.232C930.889 618.232 932.873 618.744 934.601 619.64L940.553 616.44L943.241 621.24L938.889 623.672C939.785 625.208 940.297 627 940.297 629.048C940.297 635.832 935.241 639.864 928.713 639.864C926.793 639.864 925.001 639.48 923.529 638.904C922.377 639.544 921.801 640.504 921.801 641.72C921.801 643.448 922.889 644.216 925.129 644.216L932.233 644.216C938.569 644.216 942.921 647.352 942.921 653.432C942.921 661.432 936.009 664.568 928.777 664.568C920.649 664.568 914.569 660.984 914.569 653.944C914.569 651.192 915.657 648.952 917.321 647.416C916.169 646.264 915.465 644.6 915.465 642.36C915.465 639.48 917.001 637.176 919.369 635.832C917.961 634.104 917.193 631.8 917.193 629.048ZM930.825 649.848L925.641 649.848C924.489 649.848 923.401 649.784 922.377 649.656C921.417 650.68 920.969 651.896 920.969 653.56C920.969 656.76 923.849 658.808 928.777 658.808C933.385 658.808 936.137 657.08 936.137 653.944C936.137 650.872 933.961 649.848 930.825 649.848ZM923.657 629.048C923.657 632.248 925.769 634.296 928.713 634.296C931.721 634.296 933.833 632.248 933.833 629.048C933.833 625.848 931.721 623.8 928.713 623.8C925.769 623.8 923.657 625.848 923.657 629.048ZM950.443 629.048C950.443 622.328 955.435 618.232 961.963 618.232C964.139 618.232 966.123 618.744 967.851 619.64L973.803 616.44L976.491 621.24L972.139 623.672C973.035 625.208 973.547 627 973.547 629.048C973.547 635.832 968.491 639.864 961.963 639.864C960.043 639.864 958.251 639.48 956.779 638.904C955.627 639.544 955.051 640.504 955.051 641.72C955.051 643.448 956.139 644.216 958.379 644.216L965.483 644.216C971.819 644.216 976.171 647.352 976.171 653.432C976.171 661.432 969.259 664.568 962.027 664.568C953.899 664.568 947.819 660.984 947.819 653.944C947.819 651.192 948.907 648.952 950.571 647.416C949.419 646.264 948.715 644.6 948.715 642.36C948.715 639.48 950.251 637.176 952.619 635.832C951.211 634.104 950.443 631.8 950.443 629.048ZM964.075 649.848L958.891 649.848C957.739 649.848 956.651 649.784 955.627 649.656C954.667 650.68 954.219 651.896 954.219 653.56C954.219 656.76 957.099 658.808 962.027 658.808C966.635 658.808 969.387 657.08 969.387 653.944C969.387 650.872 967.211 649.848 964.075 649.848ZM956.907 629.048C956.907 632.248 959.019 634.296 961.963 634.296C964.971 634.296 967.083 632.248 967.083 629.048C967.083 625.848 964.971 623.8 961.963 623.8C959.019 623.8 956.907 625.848 956.907 629.048ZM989.723 651L983.066 651L983.066 618.744L989.723 618.744L989.723 624.12C991.963 620.28 995.803 618.232 999.259 618.232C1000.99 618.232 1002.39 618.616 1003.35 619L1002.2 625.08C1001.18 624.44 999.77 624.12 998.426 624.12C994.138 624.12 989.723 628.856 989.723 639.032L989.723 651ZM1021.74 624.12C1017.32 624.12 1014.57 627.128 1013.87 631.16L1029.55 631.16C1028.97 627.576 1026.54 624.12 1021.74 624.12ZM1036.59 633.848L1036.59 636.728L1013.74 636.728C1013.74 641.464 1016.49 645.624 1021.74 645.624C1025.19 645.624 1028.52 643.704 1030.19 640.184L1035.88 642.424C1032.75 648.504 1029.1 651.512 1021.74 651.512C1011.11 651.512 1006.7 642.552 1006.7 634.872C1006.7 627.192 1011.11 618.232 1021.74 618.232C1032.04 618.232 1036.59 626.616 1036.59 633.848ZM1044.69 629.048C1044.69 622.328 1049.69 618.232 1056.21 618.232C1058.39 618.232 1060.37 618.744 1062.1 619.64L1068.05 616.44L1070.74 621.24L1066.39 623.672C1067.29 625.208 1067.8 627 1067.8 629.048C1067.8 635.832 1062.74 639.864 1056.21 639.864C1054.29 639.864 1052.5 639.48 1051.03 638.904C1049.88 639.544 1049.3 640.504 1049.3 641.72C1049.3 643.448 1050.39 644.216 1052.63 644.216L1059.73 644.216C1066.07 644.216 1070.42 647.352 1070.42 653.432C1070.42 661.432 1063.51 664.568 1056.28 664.568C1048.15 664.568 1042.07 660.984 1042.07 653.944C1042.07 651.192 1043.16 648.952 1044.82 647.416C1043.67 646.264 1042.96 644.6 1042.96 642.36C1042.96 639.48 1044.5 637.176 1046.87 635.832C1045.46 634.104 1044.69 631.8 1044.69 629.048ZM1058.32 649.848L1053.14 649.848C1051.99 649.848 1050.9 649.784 1049.88 649.656C1048.92 650.68 1048.47 651.896 1048.47 653.56C1048.47 656.76 1051.35 658.808 1056.28 658.808C1060.88 658.808 1063.64 657.08 1063.64 653.944C1063.64 650.872 1061.46 649.848 1058.32 649.848ZM1051.16 629.048C1051.16 632.248 1053.27 634.296 1056.21 634.296C1059.22 634.296 1061.33 632.248 1061.33 629.048C1061.33 625.848 1059.22 623.8 1056.21 623.8C1053.27 623.8 1051.16 625.848 1051.16 629.048ZM1074.19 641.72C1074.19 635.064 1079.89 631.16 1088.14 631.16L1093.71 631.16L1093.71 629.752C1093.71 625.72 1090.83 624.12 1087.44 624.12C1084.82 624.12 1082.51 625.528 1081.42 628.408L1075.34 627.128C1076.69 621.688 1081.29 618.232 1087.5 618.232C1094.99 618.232 1100.37 621.496 1100.37 630.968L1100.37 651L1094.73 651L1094.1 646.776C1091.98 649.72 1088.65 651.512 1084.11 651.512C1078.73 651.512 1074.19 648.44 1074.19 641.72ZM1081.23 641.72C1081.23 643.896 1082.45 645.624 1085.26 645.624C1089.36 645.624 1093.71 643 1093.71 637.432L1093.71 636.728L1087.89 636.728C1083.79 636.728 1081.23 638.648 1081.23 641.72ZM1105.41 624.632L1105.41 618.744L1110.78 618.744L1110.78 609.848L1117.44 605.688L1117.44 618.744L1125.82 618.744L1125.82 624.632L1117.44 624.632L1117.44 640.376C1117.44 644.024 1118.78 645.624 1121.73 645.624C1122.88 645.624 1123.65 645.432 1124.8 644.728L1126.53 650.36C1124.8 651.192 1123.13 651.512 1121.34 651.512C1115.26 651.512 1110.78 647.928 1110.78 639.992L1110.78 624.632L1105.41 624.632ZM1131.07 634.872C1131.07 625.784 1136.96 618.232 1146.95 618.232C1156.93 618.232 1162.82 625.784 1162.82 634.872C1162.82 643.96 1156.93 651.512 1146.95 651.512C1136.96 651.512 1131.07 643.96 1131.07 634.872ZM1138.11 634.872C1138.11 640.312 1141.12 645.624 1146.95 645.624C1152.77 645.624 1155.78 640.312 1155.78 634.872C1155.78 629.432 1152.77 624.12 1146.95 624.12C1141.12 624.12 1138.11 629.432 1138.11 634.872ZM1176.54 651L1169.88 651L1169.88 618.744L1176.54 618.744L1176.54 624.12C1178.78 620.28 1182.62 618.232 1186.07 618.232C1187.8 618.232 1189.21 618.616 1190.17 619L1189.02 625.08C1187.99 624.44 1186.58 624.12 1185.24 624.12C1180.95 624.12 1176.54 628.856 1176.54 639.032L1176.54 651Z" fill="#57FFC0"/>
<g opacity="0.05">
<path d="M1228.46 480.268L1307.42 525.861L1241.57 570.189L1162.61 524.596L1228.46 480.268Z" stroke="#EEEEEE" stroke-width="3.56333" stroke-linecap="round" stroke-linejoin="round"/>
<path d="M1307.43 -116.18L1479.55 -16.7987L1479.55 65.556L1241.57 -71.8529L1307.43 -116.18Z" stroke="#EEEEEE" stroke-width="3.56333" stroke-linecap="round" stroke-linejoin="round"/>
<path d="M1241.59 570.189L1307.45 525.861L1307.45 490.445L1241.59 452.417L1241.59 570.189Z" stroke="#EEEEEE" stroke-width="3.56333" stroke-linecap="round" stroke-linejoin="round"/>
<path d="M1307.44 273.893L1307.44 316.91L1241.59 361.238L1241.58 235.865L1307.44 273.893Z" stroke="#EEEEEE" stroke-width="3.56333" stroke-linecap="round" stroke-linejoin="round"/>
<path d="M1307.45 316.91L1479.57 416.291V498.647L1241.59 361.238L1307.45 316.91Z" stroke="#EEEEEE" stroke-width="3.56333" stroke-linecap="round" stroke-linejoin="round"/>
<path d="M1307.44 100.358V57.3437L1241.58 19.3169L1241.59 144.686L1307.44 100.358Z" stroke="#EEEEEE" stroke-width="3.56333" stroke-linecap="round" stroke-linejoin="round"/>
<path d="M1241.58 144.676L1479.56 282.081V199.729L1307.44 100.348L1241.58 144.676Z" stroke="#EEEEEE" stroke-width="3.56333" stroke-linecap="round" stroke-linejoin="round"/>
<path d="M1545.41 663.266L1624.37 708.855L1558.51 753.183L1479.55 707.59L1545.41 663.266Z" stroke="#EEEEEE" stroke-width="3.56333" stroke-linecap="round" stroke-linejoin="round"/>
<path d="M1624.39 708.859L1558.53 753.186L1558.51 -6.63393L1624.37 -50.9614L1624.39 708.859Z" stroke="#EEEEEE" stroke-width="3.56333" stroke-linecap="round" stroke-linejoin="round"/>
<path d="M1241.57 -189.638H1243.35C1243.35 -190.275 1243.01 -190.863 1242.46 -191.181L1241.57 -189.638ZM1162.61 -235.23L1163.5 -236.773C1162.95 -237.091 1162.27 -237.091 1161.72 -236.773C1161.16 -236.455 1160.82 -235.867 1160.82 -235.23L1162.61 -235.23ZM1241.57 -71.8656H1239.79C1239.79 -71.2291 1240.13 -70.6412 1240.68 -70.3226L1241.57 -71.8656ZM1479.55 65.543L1478.66 67.0859C1479.21 67.403 1479.89 67.403 1480.44 67.0859C1480.99 66.7652 1481.33 66.1773 1481.33 65.543H1479.55ZM1479.55 -52.2305L1480.44 -53.7735C1479.89 -54.0917 1479.21 -54.0917 1478.66 -53.7735C1478.11 -53.4552 1477.76 -52.8669 1477.76 -52.2302L1479.55 -52.2305ZM1558.51 -6.63876H1560.29C1560.29 -7.27518 1559.95 -7.86348 1559.4 -8.18168L1558.51 -6.63876ZM1558.53 753.181L1557.64 754.724C1558.19 755.041 1558.87 755.041 1559.42 754.724C1559.97 754.407 1560.31 753.815 1560.31 753.181H1558.53ZM1479.57 707.588H1477.79C1477.79 708.226 1478.13 708.814 1478.68 709.131L1479.57 707.588ZM1479.57 589.816H1481.35C1481.35 589.178 1481.01 588.59 1480.46 588.273L1479.57 589.816ZM1241.59 452.407L1242.48 450.864C1241.93 450.547 1241.25 450.547 1240.7 450.864C1240.15 451.185 1239.81 451.773 1239.81 452.407H1241.59ZM1241.59 570.182L1240.7 571.725C1241.25 572.042 1241.93 572.042 1242.48 571.725C1243.03 571.404 1243.37 570.817 1243.37 570.182H1241.59ZM1162.63 524.589H1160.85C1160.85 525.227 1161.19 525.815 1161.74 526.132L1162.63 524.589ZM1241.58 361.232H1239.8C1239.8 361.866 1240.14 362.454 1240.69 362.775L1241.58 361.232ZM1479.56 498.638L1478.67 500.181C1479.23 500.498 1479.9 500.498 1480.45 500.181C1481.01 499.863 1481.35 499.276 1481.35 498.638H1479.56ZM1479.56 373.269H1481.34C1481.34 372.631 1481 372.043 1480.45 371.726L1479.56 373.269ZM1241.58 235.86L1242.47 234.317C1241.92 234 1241.24 234 1240.69 234.317C1240.14 234.637 1239.8 235.225 1239.8 235.86H1241.58ZM1241.57 19.3127L1242.46 17.7697C1241.91 17.4511 1241.23 17.4511 1240.68 17.7697C1240.13 18.0879 1239.79 18.6759 1239.79 19.3127H1241.57ZM1241.58 144.681H1239.79C1239.8 145.319 1240.14 145.907 1240.69 146.224L1241.58 144.681ZM1479.55 156.722H1481.33C1481.33 156.084 1481 155.496 1480.44 155.179L1479.55 156.722ZM1479.56 282.09L1478.67 283.633C1479.22 283.95 1479.9 283.95 1480.45 283.633C1481 283.316 1481.34 282.728 1481.34 282.09H1479.56ZM1242.46 -191.181L1163.5 -236.773L1161.72 -233.687L1240.67 -188.095L1242.46 -191.181ZM1243.35 -71.8659L1243.35 -189.638H1239.79L1239.79 -71.8656L1243.35 -71.8659ZM1480.44 64L1242.46 -73.4088L1240.68 -70.3226L1478.66 67.0859L1480.44 64ZM1477.76 -52.2302L1477.77 65.543H1481.33L1481.33 -52.2305L1477.76 -52.2302ZM1559.4 -8.18168L1480.44 -53.7735L1478.66 -50.6876L1557.62 -5.09582L1559.4 -8.18168ZM1560.31 753.181L1560.29 -6.63876H1556.73L1556.75 753.181H1560.31ZM1478.68 709.131L1557.64 754.724L1559.42 751.638L1480.46 706.045L1478.68 709.131ZM1477.79 589.816L1477.79 707.588H1481.35L1481.35 589.816H1477.79ZM1480.46 588.273L1242.48 450.864L1240.7 453.95L1478.68 591.359L1480.46 588.273ZM1243.37 570.182L1243.37 452.407H1239.81L1239.81 570.182H1243.37ZM1161.74 526.132L1240.7 571.725L1242.48 568.639L1163.52 523.046L1161.74 526.132ZM1160.82 -235.23L1160.85 524.589H1164.41L1164.39 -235.23L1160.82 -235.23ZM1240.69 362.775L1478.67 500.181L1480.45 497.095L1242.47 359.689L1240.69 362.775ZM1477.78 373.269L1477.78 498.638H1481.35L1481.34 373.269H1477.78ZM1240.69 237.403L1478.67 374.812L1480.45 371.726L1242.47 234.317L1240.69 237.403ZM1243.36 361.232L1243.36 235.86H1239.8L1239.8 361.232H1243.36ZM1239.79 19.3127L1239.79 144.681H1243.36L1243.35 19.3127H1239.79ZM1480.44 155.179L1242.46 17.7697L1240.68 20.8556L1478.66 158.264L1480.44 155.179ZM1481.34 282.09L1481.33 156.722H1477.77L1477.78 282.09H1481.34ZM1240.69 146.224L1478.67 283.633L1480.45 280.547L1242.47 143.138L1240.69 146.224Z" fill="#EEEEEE"/>
<path d="M1230.22 -280.184C1230.22 -281.168 1229.43 -281.966 1228.44 -281.966C1227.46 -281.966 1226.66 -281.168 1226.66 -280.184L1230.22 -280.184ZM1226.68 479.636C1226.69 480.62 1227.48 481.418 1228.47 481.418C1229.45 481.418 1230.25 480.62 1230.24 479.636H1226.68ZM1226.66 -280.184L1226.68 479.636H1230.24L1230.22 -280.184L1226.66 -280.184Z" fill="#EEEEEE"/>
<path d="M1543.6 664.097C1543.6 665.08 1544.4 665.878 1545.38 665.878C1546.37 665.878 1547.16 665.08 1547.16 664.097H1543.6ZM1547.16 -97.1861C1547.16 -98.1703 1546.37 -98.9678 1545.38 -98.9678C1544.4 -98.9678 1543.6 -98.1703 1543.6 -97.1861H1547.16ZM1543.6 -97.1861V664.097H1547.16V-97.1861H1543.6Z" fill="#EEEEEE"/>
</g>
<g opacity="0.05">
<path d="M1010.46 437.45L1089.42 483.041L1023.57 527.369L944.605 481.777L1010.46 437.45Z" stroke="#EEEEEE" stroke-width="3.56333" stroke-linejoin="round"/>
<path d="M1089.43 600.82L1261.55 700.201L1261.55 782.556L1023.57 645.147L1089.43 600.82Z" stroke="#EEEEEE" stroke-width="3.56333" stroke-linecap="round" stroke-linejoin="round"/>
<path d="M1089.43 483.035L1089.43 600.809L1023.57 645.135L1023.57 527.363L1089.43 483.035Z" stroke="#EEEEEE" stroke-width="3.56333" stroke-linecap="round" stroke-linejoin="round"/>
<path d="M1089.44 817.358V774.344L1023.58 736.317L1023.59 861.686L1089.44 817.358Z" stroke="#EEEEEE" stroke-width="3.56333" stroke-linecap="round" stroke-linejoin="round"/>
<path d="M1023.58 861.676L1261.56 999.081V916.729L1089.44 817.348L1023.58 861.676Z" stroke="#EEEEEE" stroke-width="3.56333" stroke-linecap="round" stroke-linejoin="round"/>
<path d="M1327.41 620.454L1406.37 666.045L1340.51 710.372L1261.55 664.781L1327.41 620.454Z" stroke="#EEEEEE" stroke-width="3.56333" stroke-linecap="round" stroke-linejoin="round"/>
<path d="M1406.39 1425.86L1340.53 1470.19L1340.51 710.366L1406.37 666.039L1406.39 1425.86Z" stroke="#EEEEEE" stroke-width="3.56333" stroke-linecap="round" stroke-linejoin="round"/>
<path d="M1023.57 527.361H1025.35C1025.35 526.725 1025.01 526.136 1024.46 525.818L1023.57 527.361ZM944.606 481.769L945.497 480.226C944.945 479.908 944.266 479.908 943.715 480.226C943.164 480.545 942.824 481.133 942.824 481.77L944.606 481.769ZM1023.57 645.134H1021.79C1021.79 645.77 1022.13 646.358 1022.68 646.677L1023.57 645.134ZM1261.55 782.542L1260.66 784.085C1261.21 784.403 1261.89 784.403 1262.44 784.085C1262.99 783.765 1263.33 783.177 1263.33 782.542H1261.55ZM1261.55 664.769L1262.44 663.226C1261.89 662.908 1261.21 662.908 1260.66 663.226C1260.11 663.544 1259.76 664.133 1259.76 664.769L1261.55 664.769ZM1340.51 710.361H1342.29C1342.29 709.724 1341.95 709.136 1341.4 708.818L1340.51 710.361ZM1340.53 1470.18L1339.64 1471.72C1340.19 1472.04 1340.87 1472.04 1341.42 1471.72C1341.97 1471.41 1342.31 1470.81 1342.31 1470.18H1340.53ZM1261.57 1424.59H1259.79C1259.79 1425.23 1260.13 1425.81 1260.68 1426.13L1261.57 1424.59ZM1261.57 1306.82H1263.35C1263.35 1306.18 1263.01 1305.59 1262.46 1305.27L1261.57 1306.82ZM1023.59 1169.41L1024.48 1167.86C1023.93 1167.55 1023.25 1167.55 1022.7 1167.86C1022.15 1168.18 1021.81 1168.77 1021.81 1169.41H1023.59ZM1023.59 1287.18L1022.7 1288.72C1023.25 1289.04 1023.93 1289.04 1024.48 1288.72C1025.03 1288.4 1025.37 1287.82 1025.37 1287.18H1023.59ZM944.63 1241.59H942.848C942.848 1242.23 943.188 1242.81 943.739 1243.13L944.63 1241.59ZM1023.58 1078.23H1021.8C1021.8 1078.87 1022.14 1079.45 1022.69 1079.77L1023.58 1078.23ZM1261.56 1215.64L1260.67 1217.18C1261.23 1217.5 1261.9 1217.5 1262.45 1217.18C1263.01 1216.86 1263.35 1216.28 1263.35 1215.64H1261.56ZM1261.56 1090.27H1263.34C1263.34 1089.63 1263 1089.04 1262.45 1088.73L1261.56 1090.27ZM1023.58 952.859L1024.47 951.316C1023.92 950.999 1023.24 950.999 1022.69 951.316C1022.14 951.637 1021.8 952.225 1021.8 952.859H1023.58ZM1023.57 736.312L1024.46 734.769C1023.91 734.451 1023.23 734.451 1022.68 734.769C1022.13 735.087 1021.79 735.675 1021.79 736.312H1023.57ZM1023.58 861.681H1021.79C1021.8 862.318 1022.14 862.906 1022.69 863.223L1023.58 861.681ZM1261.55 873.721H1263.33C1263.33 873.083 1263 872.495 1262.44 872.178L1261.55 873.721ZM1261.56 999.09L1260.67 1000.63C1261.22 1000.95 1261.9 1000.95 1262.45 1000.63C1263 1000.32 1263.34 999.728 1263.34 999.09H1261.56ZM1024.46 525.818L945.497 480.226L943.715 483.312L1022.67 528.904L1024.46 525.818ZM1025.35 645.134L1025.35 527.361H1021.79L1021.79 645.134L1025.35 645.134ZM1262.44 781L1024.46 643.591L1022.68 646.677L1260.66 784.085L1262.44 781ZM1259.76 664.769L1259.77 782.542H1263.33L1263.33 664.769L1259.76 664.769ZM1341.4 708.818L1262.44 663.226L1260.66 666.312L1339.62 711.904L1341.4 708.818ZM1342.31 1470.18L1342.29 710.361H1338.73L1338.75 1470.18H1342.31ZM1260.68 1426.13L1339.64 1471.72L1341.42 1468.64L1262.46 1423.04L1260.68 1426.13ZM1259.79 1306.82L1259.79 1424.59H1263.35L1263.35 1306.82H1259.79ZM1262.46 1305.27L1024.48 1167.86L1022.7 1170.95L1260.68 1308.36L1262.46 1305.27ZM1025.37 1287.18L1025.37 1169.41H1021.81L1021.81 1287.18H1025.37ZM943.739 1243.13L1022.7 1288.72L1024.48 1285.64L945.521 1240.05L943.739 1243.13ZM942.824 481.77L942.848 1241.59H946.412L946.388 481.769L942.824 481.77ZM1022.69 1079.77L1260.67 1217.18L1262.45 1214.09L1024.47 1076.69L1022.69 1079.77ZM1259.78 1090.27L1259.78 1215.64H1263.35L1263.34 1090.27H1259.78ZM1022.69 954.402L1260.67 1091.81L1262.45 1088.73L1024.47 951.316L1022.69 954.402ZM1025.36 1078.23L1025.36 952.859H1021.8L1021.8 1078.23H1025.36ZM1021.79 736.312L1021.79 861.681H1025.36L1025.35 736.312H1021.79ZM1262.44 872.178L1024.46 734.769L1022.68 737.855L1260.66 875.264L1262.44 872.178ZM1263.34 999.09L1263.33 873.721H1259.77L1259.78 999.09H1263.34ZM1022.69 863.223L1260.67 1000.63L1262.45 997.547L1024.47 860.138L1022.69 863.223Z" fill="#EEEEEE"/>
<path d="M1012.22 436.816C1012.22 435.832 1011.43 435.034 1010.44 435.034C1009.46 435.034 1008.66 435.832 1008.66 436.816L1012.22 436.816ZM1008.68 1196.64C1008.69 1197.62 1009.48 1198.42 1010.47 1198.42C1011.45 1198.42 1012.25 1197.62 1012.24 1196.64H1008.68ZM1008.66 436.816L1008.68 1196.64H1012.24L1012.22 436.816L1008.66 436.816Z" fill="#EEEEEE"/>
<path d="M1325.6 1381.1C1325.6 1382.08 1326.4 1382.88 1327.38 1382.88C1328.37 1382.88 1329.16 1382.08 1329.16 1381.1H1325.6ZM1329.16 619.814C1329.16 618.83 1328.37 618.032 1327.38 618.032C1326.4 618.032 1325.6 618.83 1325.6 619.814H1329.16ZM1325.6 619.814V1381.1H1329.16V619.814H1325.6Z" fill="#EEEEEE"/>
</g>
</g>
<defs>
<filter id="filter0_f_1945_485" x="513.694" y="-803.475" width="1586.61" height="1463.95" filterUnits="userSpaceOnUse" color-interpolation-filters="sRGB">
<feFlood flood-opacity="0" result="BackgroundImageFix"/>
<feBlend mode="normal" in="SourceGraphic" in2="BackgroundImageFix" result="shape"/>
<feGaussianBlur stdDeviation="162.948" result="effect1_foregroundBlur_1945_485"/>
</filter>
<filter id="filter1_f_1945_485" x="-979.897" y="410.104" width="1776.14" height="1060.79" filterUnits="userSpaceOnUse" color-interpolation-filters="sRGB">
<feFlood flood-opacity="0" result="BackgroundImageFix"/>
<feBlend mode="normal" in="SourceGraphic" in2="BackgroundImageFix" result="shape"/>
<feGaussianBlur stdDeviation="162.948" result="effect1_foregroundBlur_1945_485"/>
</filter>
<linearGradient id="paint0_linear_1945_485" x1="979.793" y1="134.602" x2="1618.84" y2="409.932" gradientUnits="userSpaceOnUse">
<stop stop-color="#281277"/>
<stop offset="1" stop-color="#ADDB67"/>
</linearGradient>
<linearGradient id="paint1_linear_1945_485" x1="401.734" y1="372.95" x2="552.147" y2="522.089" gradientUnits="userSpaceOnUse">
<stop stop-color="#7C56E9"/>
<stop offset="1" stop-color="#9B40E2"/>
</linearGradient>
<linearGradient id="paint2_linear_1945_485" x1="-481.546" y1="1045.74" x2="-32.5779" y2="1496.94" gradientUnits="userSpaceOnUse">
<stop stop-color="#281277"/>
<stop offset="1" stop-color="#ADDB67"/>
</linearGradient>
<clipPath id="clip0_1945_485">
<rect width="1600" height="900" rx="12" fill="white"/>
</clipPath>
</defs>
</svg>
