<svg width="1600" height="900" viewBox="0 0 1600 900" fill="none" xmlns="http://www.w3.org/2000/svg">
<g clip-path="url(#clip0_1945_485)">
<rect width="1600" height="900" rx="12" fill="#0B0C0B"/>
<g opacity="0.5" filter="url(#filter0_f_1945_485)">
<ellipse cx="1307" cy="-71.4998" rx="472" ry="400.5" transform="rotate(-164.58 1307 -71.4998)" fill="url(#paint0_linear_1945_485)"/>
</g>
<path fill-rule="evenodd" clip-rule="evenodd" d="M503.518 380H432.506V415.25H397V485.75H432.506V521H503.518V485.75H539.024V415.25H503.518V380ZM492.867 425.825H443.158V475.175H492.867V425.825Z" fill="url(#paint1_linear_1945_485)"/>
<path d="M602.789 439.258V485.506C602.789 508.437 615.405 520.192 634.816 520.192C640.445 520.192 645.686 519.036 650.539 516.723L645.298 499.766C642.386 501.5 639.281 502.464 635.981 502.464C627.245 502.464 622.975 497.261 622.975 486.662V439.258H648.403V421.53H622.975V382.219L602.789 394.744V421.53H586.484V439.258H602.789ZM681.99 482.615C681.99 468.163 684.513 457.179 689.754 449.471C694.995 441.57 701.206 437.716 708.387 437.716C712.852 437.716 716.734 438.68 719.839 440.607L723.333 422.3C719.451 420.759 715.375 419.988 710.911 419.988C700.041 419.988 688.395 426.347 681.99 437.716V421.53H661.803V518.65H681.99V482.615ZM721.283 490.709C721.283 509.979 734.094 520.192 751.369 520.192C764.762 520.192 774.855 515.374 781.648 505.932L783.589 518.65H800.67V458.335C800.67 432.706 787.666 419.988 761.656 419.988C743.023 419.988 728.853 430.394 724.777 446.773L743.217 450.627C746.516 441.956 752.533 437.716 761.462 437.716C772.526 437.716 780.484 443.112 780.484 454.674V458.913H763.597C738.17 458.913 721.283 470.861 721.283 490.709ZM742.634 490.709C742.634 481.459 750.398 475.678 762.821 475.678H780.484V477.798C780.484 485.699 777.961 491.672 772.72 496.104C767.673 500.344 761.656 502.464 754.863 502.464C746.905 502.464 742.634 497.646 742.634 490.709ZM817.54 518.65H837.727V479.34C837.727 466.621 840.25 456.601 845.103 449.086C850.149 441.57 855.972 437.716 862.766 437.716C872.859 437.716 877.906 443.69 877.906 455.445V518.65H898.092V449.086C898.092 430.586 886.64 419.988 869.365 419.988C856.36 419.988 844.714 426.54 837.727 438.102V421.53H817.54V518.65ZM946.312 419.988C937.577 419.988 930.395 422.686 924.766 428.081C919.138 433.284 916.226 439.836 916.226 447.544C916.226 459.491 923.214 468.356 937.189 474.137C940.294 475.486 947.476 477.991 950.388 479.34C951.94 479.918 953.687 480.881 955.434 482.037C959.122 484.157 960.481 486.469 960.481 489.745C960.481 498.224 956.017 502.464 947.282 502.464C938.159 502.464 930.978 496.683 925.737 484.928L908.656 494.177C914.673 508.245 927.872 520.192 946.506 520.192C956.793 520.192 964.945 517.301 971.156 511.328C977.368 505.354 980.473 498.031 980.473 489.36C979.697 478.761 976.009 472.98 968.245 468.356C962.81 464.694 959.899 463.731 953.105 461.226C944.759 458.143 941.459 456.601 938.159 453.325C936.412 451.591 935.636 449.471 935.636 447.351C935.636 441.185 939.906 437.716 945.341 437.716C952.135 437.716 957.763 440.607 962.422 446.581L975.233 435.404C969.021 425.962 958.152 419.988 946.312 419.988ZM996.288 439.258V518.65H1016.47V439.258H1038.02V421.53H1016.47V415.17C1016.47 404.957 1020.94 399.947 1029.67 399.947C1033.75 399.947 1037.63 400.911 1041.12 402.645L1045.2 385.687C1040.74 383.375 1035.5 382.219 1029.09 382.219C1008.71 382.219 996.288 393.588 996.288 416.519V421.53H983.671V439.258H996.288ZM1085.59 437.716C1099.37 437.716 1107.53 446.773 1109.27 458.913H1061.72C1064.05 446.388 1072.59 437.716 1085.59 437.716ZM1130.62 467.007C1130.62 445.232 1116.84 419.988 1085.59 419.988C1053.37 419.988 1039.98 446.966 1039.98 470.09C1039.98 493.214 1053.37 520.192 1085.59 520.192C1107.14 520.192 1118.59 511.906 1128.49 492.829L1111.21 486.084C1106.36 496.297 1096.46 502.464 1085.59 502.464C1070.26 502.464 1061.33 490.902 1061.33 475.678H1130.62V467.007ZM1161.71 482.615C1161.71 468.163 1164.23 457.179 1169.47 449.471C1174.71 441.57 1180.92 437.716 1188.1 437.716C1192.57 437.716 1196.45 438.68 1199.56 440.607L1203.05 422.3C1199.17 420.759 1195.09 419.988 1190.63 419.988C1179.76 419.988 1168.11 426.347 1161.71 437.716V421.53H1141.52V518.65H1161.71V482.615Z" fill="white"/>
<g opacity="0.5" filter="url(#filter1_f_1945_485)">
<ellipse cx="-91.8296" cy="940.5" rx="562.171" ry="204.5" transform="rotate(-180 -91.8296 940.5)" fill="url(#paint2_linear_1945_485)"/>
</g>
<path d="M477.237 619.256L470.581 620.92C468.341 615.224 465.205 612.344 459.125 612.344C451.573 612.344 445.557 617.656 445.557 628.6C445.557 639.544 451.573 644.856 459.125 644.856C465.205 644.856 468.341 641.976 470.581 636.28L477.237 637.944C474.933 646.392 468.661 651.512 459.125 651.512C448.309 651.512 438.389 643.768 438.389 628.6C438.389 613.432 448.309 605.688 459.125 605.688C468.661 605.688 474.933 610.808 477.237 619.256ZM491.348 651L484.691 651L484.691 618.744L491.348 618.744L491.348 624.12C493.588 620.28 497.428 618.232 500.884 618.232C502.612 618.232 504.02 618.616 504.98 619L503.828 625.08C502.804 624.44 501.395 624.12 500.051 624.12C495.763 624.12 491.348 628.856 491.348 639.032L491.348 651ZM508.323 634.872C508.323 625.784 514.211 618.232 524.196 618.232C534.18 618.232 540.068 625.784 540.068 634.872C540.068 643.96 534.179 651.512 524.196 651.512C514.211 651.512 508.323 643.96 508.323 634.872ZM515.364 634.872C515.363 640.312 518.372 645.624 524.196 645.624C530.02 645.624 533.028 640.312 533.028 634.872C533.028 629.432 530.02 624.12 524.196 624.12C518.372 624.12 515.364 629.432 515.364 634.872ZM557.039 618.232C560.943 618.232 564.527 620.152 566.575 623.352L562.35 627.064C560.751 625.016 558.767 624.12 556.719 624.12C555.055 624.12 553.518 625.208 553.518 627.32C553.518 629.624 555.95 630.648 559.279 631.928C563.631 633.592 568.303 635.512 568.303 641.272C568.303 646.84 564.015 651.512 557.103 651.512C550.446 651.512 546.286 646.904 544.622 642.872L550.254 639.8C551.534 642.68 553.775 645.624 557.358 645.624C559.919 645.624 561.711 644.344 561.711 641.4C561.711 638.584 557.806 637.816 554.03 636.216C550.318 634.68 547.118 632.312 547.118 627.384C547.118 622.392 551.215 618.232 557.039 618.232ZM585.476 618.232C589.38 618.232 592.964 620.152 595.012 623.352L590.788 627.064C589.188 625.016 587.204 624.12 585.156 624.12C583.492 624.12 581.956 625.208 581.956 627.32C581.956 629.624 584.388 630.648 587.716 631.928C592.068 633.592 596.74 635.512 596.74 641.272C596.74 646.84 592.452 651.512 585.54 651.512C578.884 651.512 574.724 646.904 573.06 642.872L578.692 639.8C579.972 642.68 582.212 645.624 585.796 645.624C588.356 645.624 590.148 644.344 590.148 641.4C590.148 638.584 586.244 637.816 582.468 636.216C578.756 634.68 575.556 632.312 575.556 627.384C575.556 622.392 579.652 618.232 585.476 618.232ZM603.664 633.656L603.664 627.768L626.257 627.768L626.257 633.656L603.664 633.656ZM672.737 619.256L666.081 620.92C663.841 615.224 660.705 612.344 654.625 612.344C647.073 612.344 641.057 617.656 641.057 628.6C641.057 639.544 647.073 644.856 654.625 644.856C660.705 644.856 663.841 641.976 666.081 636.28L672.737 637.944C670.433 646.392 664.161 651.512 654.625 651.512C643.809 651.512 633.889 643.768 633.889 628.6C633.889 613.432 643.809 605.688 654.625 605.688C664.161 605.688 670.433 610.808 672.737 619.256ZM679.754 605.688L686.41 605.688L686.41 624.248C688.714 620.92 692.426 618.232 697.29 618.232C703.242 618.232 706.826 621.432 706.826 628.28L706.826 651L700.17 651L700.17 630.008C700.17 625.08 698.122 624.12 695.114 624.12C691.466 624.12 686.41 628.792 686.41 637.368L686.41 651L679.754 651L679.754 605.688ZM714.253 641.72C714.253 635.064 719.949 631.16 728.206 631.16L733.773 631.16L733.773 629.752C733.773 625.72 730.894 624.12 727.502 624.12C724.878 624.12 722.574 625.528 721.485 628.408L715.405 627.128C716.749 621.688 721.357 618.232 727.565 618.232C735.054 618.232 740.43 621.496 740.43 630.968L740.429 651L734.797 651L734.158 646.776C732.046 649.72 728.717 651.512 724.174 651.512C718.797 651.512 714.253 648.44 714.253 641.72ZM721.294 641.72C721.294 643.896 722.509 645.624 725.325 645.624C729.422 645.624 733.773 643 733.773 637.432L733.773 636.728L727.95 636.728C723.853 636.728 721.294 638.648 721.294 641.72ZM747.592 609.656C747.592 607.096 749.576 604.984 752.199 604.984C754.824 604.984 756.808 607.096 756.808 609.656C756.808 612.216 754.824 614.2 752.199 614.2C749.576 614.2 747.591 612.216 747.592 609.656ZM748.871 618.744L755.527 618.744L755.527 651L748.871 651L748.871 618.744ZM764.129 618.744L770.785 618.744L770.785 624.248C773.089 620.408 776.929 618.232 781.217 618.232C786.849 618.232 790.689 621.624 790.689 627.896L790.689 651L784.033 651L784.033 630.008C784.033 625.656 782.049 624.12 779.041 624.12C774.881 624.12 770.785 629.048 770.785 637.944L770.785 651L764.129 651L764.129 618.744ZM818.266 606.2L825.306 606.2L825.306 644.344L844.634 644.344L844.634 651L818.266 651L818.266 606.2ZM849.592 609.656C849.592 607.096 851.576 604.984 854.199 604.984C856.824 604.984 858.808 607.096 858.808 609.656C858.808 612.216 856.824 614.2 854.199 614.2C851.576 614.2 849.591 612.216 849.592 609.656ZM850.871 618.744L857.527 618.744L857.527 651L850.871 651L850.871 618.744ZM864.698 634.872C864.698 624.568 869.562 618.232 879.099 618.232C883.322 618.232 886.779 620.6 887.867 622.456L887.867 618.744L894.523 618.744L894.523 664.056L887.866 664.056L887.867 647.416C886.394 649.528 882.426 651.512 879.227 651.512C869.562 651.512 864.698 644.856 864.698 634.872ZM871.739 634.872C871.738 641.528 875.195 645.624 879.995 645.624C884.794 645.624 888.251 641.528 888.251 634.872C888.251 628.216 884.794 624.12 879.995 624.12C875.195 624.12 871.739 628.216 871.739 634.872ZM930.179 651L923.523 651L923.523 645.496C921.218 649.336 917.378 651.512 913.091 651.512C907.459 651.512 903.618 648.12 903.618 641.848L903.618 618.744L910.275 618.744L910.275 639.736C910.275 644.088 912.259 645.624 915.266 645.624C919.426 645.624 923.523 640.696 923.523 631.8L923.523 618.744L930.179 618.744L930.179 651ZM937.592 609.656C937.592 607.096 939.576 604.984 942.199 604.984C944.824 604.984 946.808 607.096 946.808 609.656C946.808 612.216 944.824 614.2 942.199 614.2C939.576 614.2 937.591 612.216 937.592 609.656ZM938.871 618.744L945.527 618.744L945.527 651L938.871 651L938.871 618.744ZM952.698 634.872C952.698 624.888 957.562 618.232 967.227 618.232C970.426 618.232 974.395 620.216 975.867 622.328L975.867 605.688L982.523 605.688L982.523 651L975.867 651L975.867 647.288C974.779 649.144 971.322 651.512 967.099 651.512C957.562 651.512 952.698 645.176 952.698 634.872ZM959.739 634.872C959.738 641.528 963.195 645.624 967.995 645.624C972.794 645.624 976.251 641.528 976.251 634.872C976.251 628.216 972.794 624.12 967.995 624.12C963.195 624.12 959.739 628.216 959.739 634.872ZM990.029 609.656C990.029 607.096 992.013 604.984 994.637 604.984C997.261 604.984 999.245 607.096 999.245 609.656C999.245 612.216 997.261 614.2 994.637 614.2C992.013 614.2 990.029 612.216 990.029 609.656ZM991.309 618.744L997.965 618.744L997.965 651L991.309 651L991.309 618.744ZM1004.66 624.632L1004.66 618.744L1010.03 618.744L1010.03 609.848L1016.69 605.688L1016.69 618.744L1025.07 618.744L1025.07 624.632L1016.69 624.632L1016.69 640.376C1016.69 644.024 1018.03 645.624 1020.98 645.624C1022.13 645.624 1022.9 645.432 1024.05 644.728L1025.78 650.36C1024.05 651.192 1022.38 651.512 1020.59 651.512C1014.51 651.512 1010.03 647.928 1010.03 639.992L1010.03 624.632L1004.66 624.632ZM1029.32 618.744L1036.36 618.744L1043.98 640.44L1051.34 618.744L1058.38 618.744L1042.06 664.056L1035.4 664.056L1040.65 649.4L1029.32 618.744ZM1091.44 606.2L1098.1 606.2L1113.65 651L1106.48 651L1102.77 639.864L1086.77 639.864L1083.06 651L1075.89 651L1091.44 606.2ZM1094.77 615.096L1088.88 633.208L1100.66 633.208L1094.77 615.096ZM1136.33 632.696L1127.31 632.696L1127.31 651L1120.27 651L1120.27 606.2L1136.33 606.2C1145.23 606.2 1150.22 611.896 1150.22 619.448C1150.22 627 1145.23 632.696 1136.33 632.696ZM1136.65 626.04C1140.68 626.04 1143.05 623.608 1143.05 619.448C1143.05 615.288 1140.68 612.856 1136.65 612.856L1127.31 612.856L1127.31 626.04L1136.65 626.04ZM1157.83 651L1157.83 606.2L1164.87 606.2L1164.87 651L1157.83 651Z" fill="#57FFC0"/>
<g opacity="0.05">
<path d="M1228.46 480.268L1307.42 525.861L1241.57 570.189L1162.61 524.596L1228.46 480.268Z" stroke="#EEEEEE" stroke-width="3.56333" stroke-linecap="round" stroke-linejoin="round"/>
<path d="M1307.43 -116.18L1479.55 -16.7987L1479.55 65.556L1241.57 -71.8529L1307.43 -116.18Z" stroke="#EEEEEE" stroke-width="3.56333" stroke-linecap="round" stroke-linejoin="round"/>
<path d="M1241.59 570.189L1307.45 525.861L1307.45 490.445L1241.59 452.417L1241.59 570.189Z" stroke="#EEEEEE" stroke-width="3.56333" stroke-linecap="round" stroke-linejoin="round"/>
<path d="M1307.44 273.893L1307.44 316.91L1241.59 361.238L1241.58 235.865L1307.44 273.893Z" stroke="#EEEEEE" stroke-width="3.56333" stroke-linecap="round" stroke-linejoin="round"/>
<path d="M1307.45 316.91L1479.57 416.291V498.647L1241.59 361.238L1307.45 316.91Z" stroke="#EEEEEE" stroke-width="3.56333" stroke-linecap="round" stroke-linejoin="round"/>
<path d="M1307.44 100.358V57.3437L1241.58 19.3169L1241.59 144.686L1307.44 100.358Z" stroke="#EEEEEE" stroke-width="3.56333" stroke-linecap="round" stroke-linejoin="round"/>
<path d="M1241.58 144.676L1479.56 282.081V199.729L1307.44 100.348L1241.58 144.676Z" stroke="#EEEEEE" stroke-width="3.56333" stroke-linecap="round" stroke-linejoin="round"/>
<path d="M1545.41 663.266L1624.37 708.855L1558.51 753.183L1479.55 707.59L1545.41 663.266Z" stroke="#EEEEEE" stroke-width="3.56333" stroke-linecap="round" stroke-linejoin="round"/>
<path d="M1624.39 708.859L1558.53 753.186L1558.51 -6.63393L1624.37 -50.9614L1624.39 708.859Z" stroke="#EEEEEE" stroke-width="3.56333" stroke-linecap="round" stroke-linejoin="round"/>
<path d="M1241.57 -189.638H1243.35C1243.35 -190.275 1243.01 -190.863 1242.46 -191.181L1241.57 -189.638ZM1162.61 -235.23L1163.5 -236.773C1162.95 -237.091 1162.27 -237.091 1161.72 -236.773C1161.16 -236.455 1160.82 -235.867 1160.82 -235.23L1162.61 -235.23ZM1241.57 -71.8656H1239.79C1239.79 -71.2291 1240.13 -70.6412 1240.68 -70.3226L1241.57 -71.8656ZM1479.55 65.543L1478.66 67.0859C1479.21 67.403 1479.89 67.403 1480.44 67.0859C1480.99 66.7652 1481.33 66.1772 1481.33 65.543H1479.55ZM1479.55 -52.2305L1480.44 -53.7735C1479.89 -54.0917 1479.21 -54.0917 1478.66 -53.7735C1478.11 -53.4552 1477.76 -52.8669 1477.76 -52.2301L1479.55 -52.2305ZM1558.51 -6.63876H1560.29C1560.29 -7.27518 1559.95 -7.86348 1559.4 -8.18169L1558.51 -6.63876ZM1558.53 753.181L1557.64 754.724C1558.19 755.041 1558.87 755.041 1559.42 754.724C1559.97 754.407 1560.31 753.815 1560.31 753.181H1558.53ZM1479.57 707.588H1477.79C1477.79 708.226 1478.13 708.814 1478.68 709.131L1479.57 707.588ZM1479.57 589.816H1481.35C1481.35 589.178 1481.01 588.59 1480.46 588.273L1479.57 589.816ZM1241.59 452.407L1242.48 450.864C1241.93 450.547 1241.25 450.547 1240.7 450.864C1240.15 451.185 1239.81 451.773 1239.81 452.407H1241.59ZM1241.59 570.182L1240.7 571.725C1241.25 572.042 1241.93 572.042 1242.48 571.725C1243.03 571.404 1243.37 570.817 1243.37 570.182H1241.59ZM1162.63 524.589H1160.85C1160.85 525.227 1161.19 525.815 1161.74 526.132L1162.63 524.589ZM1241.58 361.232H1239.8C1239.8 361.866 1240.14 362.454 1240.69 362.775L1241.58 361.232ZM1479.56 498.638L1478.67 500.181C1479.23 500.498 1479.9 500.498 1480.45 500.181C1481.01 499.863 1481.35 499.276 1481.35 498.638H1479.56ZM1479.56 373.269H1481.34C1481.34 372.631 1481 372.043 1480.45 371.726L1479.56 373.269ZM1241.58 235.86L1242.47 234.317C1241.92 234 1241.24 234 1240.69 234.317C1240.14 234.637 1239.8 235.225 1239.8 235.86H1241.58ZM1241.57 19.3127L1242.46 17.7697C1241.91 17.4511 1241.23 17.4511 1240.68 17.7697C1240.13 18.0879 1239.79 18.6759 1239.79 19.3127H1241.57ZM1241.58 144.681H1239.79C1239.8 145.319 1240.14 145.907 1240.69 146.224L1241.58 144.681ZM1479.55 156.722H1481.33C1481.33 156.084 1481 155.496 1480.44 155.179L1479.55 156.722ZM1479.56 282.09L1478.67 283.633C1479.22 283.95 1479.9 283.95 1480.45 283.633C1481 283.316 1481.34 282.728 1481.34 282.09H1479.56ZM1242.46 -191.181L1163.5 -236.773L1161.72 -233.687L1240.67 -188.095L1242.46 -191.181ZM1243.35 -71.8659L1243.35 -189.638H1239.79L1239.79 -71.8656L1243.35 -71.8659ZM1480.44 64L1242.46 -73.4088L1240.68 -70.3226L1478.66 67.0859L1480.44 64ZM1477.76 -52.2301L1477.77 65.543H1481.33L1481.33 -52.2305L1477.76 -52.2301ZM1559.4 -8.18169L1480.44 -53.7735L1478.66 -50.6876L1557.62 -5.09583L1559.4 -8.18169ZM1560.31 753.181L1560.29 -6.63876H1556.73L1556.75 753.181H1560.31ZM1478.68 709.131L1557.64 754.724L1559.42 751.638L1480.46 706.045L1478.68 709.131ZM1477.79 589.816L1477.79 707.588H1481.35L1481.35 589.816H1477.79ZM1480.46 588.273L1242.48 450.864L1240.7 453.95L1478.68 591.359L1480.46 588.273ZM1243.37 570.182L1243.37 452.407H1239.81L1239.81 570.182H1243.37ZM1161.74 526.132L1240.7 571.725L1242.48 568.639L1163.52 523.046L1161.74 526.132ZM1160.82 -235.23L1160.85 524.589H1164.41L1164.39 -235.23L1160.82 -235.23ZM1240.69 362.775L1478.67 500.181L1480.45 497.095L1242.47 359.689L1240.69 362.775ZM1477.78 373.269L1477.78 498.638H1481.35L1481.34 373.269H1477.78ZM1240.69 237.403L1478.67 374.812L1480.45 371.726L1242.47 234.317L1240.69 237.403ZM1243.36 361.232L1243.36 235.86H1239.8L1239.8 361.232H1243.36ZM1239.79 19.3127L1239.79 144.681H1243.36L1243.35 19.3127H1239.79ZM1480.44 155.179L1242.46 17.7697L1240.68 20.8556L1478.66 158.264L1480.44 155.179ZM1481.34 282.09L1481.33 156.722H1477.77L1477.78 282.09H1481.34ZM1240.69 146.224L1478.67 283.633L1480.45 280.547L1242.47 143.138L1240.69 146.224Z" fill="#EEEEEE"/>
<path d="M1230.22 -280.184C1230.22 -281.168 1229.43 -281.966 1228.44 -281.966C1227.46 -281.966 1226.66 -281.168 1226.66 -280.184L1230.22 -280.184ZM1226.68 479.636C1226.69 480.62 1227.48 481.418 1228.47 481.418C1229.45 481.418 1230.25 480.62 1230.24 479.636H1226.68ZM1226.66 -280.184L1226.68 479.636H1230.24L1230.22 -280.184L1226.66 -280.184Z" fill="#EEEEEE"/>
<path d="M1543.6 664.097C1543.6 665.08 1544.4 665.878 1545.38 665.878C1546.37 665.878 1547.16 665.08 1547.16 664.097H1543.6ZM1547.16 -97.1861C1547.16 -98.1703 1546.37 -98.9678 1545.38 -98.9678C1544.4 -98.9678 1543.6 -98.1703 1543.6 -97.1861H1547.16ZM1543.6 -97.1861V664.097H1547.16V-97.1861H1543.6Z" fill="#EEEEEE"/>
</g>
<g opacity="0.05">
<path d="M1010.46 437.45L1089.42 483.041L1023.57 527.369L944.605 481.777L1010.46 437.45Z" stroke="#EEEEEE" stroke-width="3.56333" stroke-linejoin="round"/>
<path d="M1089.43 600.82L1261.55 700.201L1261.55 782.556L1023.57 645.147L1089.43 600.82Z" stroke="#EEEEEE" stroke-width="3.56333" stroke-linecap="round" stroke-linejoin="round"/>
<path d="M1089.43 483.035L1089.43 600.809L1023.57 645.135L1023.57 527.363L1089.43 483.035Z" stroke="#EEEEEE" stroke-width="3.56333" stroke-linecap="round" stroke-linejoin="round"/>
<path d="M1089.44 817.358V774.344L1023.58 736.317L1023.59 861.686L1089.44 817.358Z" stroke="#EEEEEE" stroke-width="3.56333" stroke-linecap="round" stroke-linejoin="round"/>
<path d="M1023.58 861.676L1261.56 999.081V916.729L1089.44 817.348L1023.58 861.676Z" stroke="#EEEEEE" stroke-width="3.56333" stroke-linecap="round" stroke-linejoin="round"/>
<path d="M1327.41 620.454L1406.37 666.045L1340.51 710.372L1261.55 664.781L1327.41 620.454Z" stroke="#EEEEEE" stroke-width="3.56333" stroke-linecap="round" stroke-linejoin="round"/>
<path d="M1406.39 1425.86L1340.53 1470.19L1340.51 710.366L1406.37 666.039L1406.39 1425.86Z" stroke="#EEEEEE" stroke-width="3.56333" stroke-linecap="round" stroke-linejoin="round"/>
<path d="M1023.57 527.361H1025.35C1025.35 526.725 1025.01 526.136 1024.46 525.818L1023.57 527.361ZM944.606 481.769L945.497 480.226C944.945 479.908 944.266 479.908 943.715 480.226C943.164 480.545 942.824 481.133 942.824 481.77L944.606 481.769ZM1023.57 645.134H1021.79C1021.79 645.77 1022.13 646.358 1022.68 646.677L1023.57 645.134ZM1261.55 782.543L1260.66 784.085C1261.21 784.403 1261.89 784.403 1262.44 784.085C1262.99 783.765 1263.33 783.177 1263.33 782.543H1261.55ZM1261.55 664.769L1262.44 663.226C1261.89 662.908 1261.21 662.908 1260.66 663.226C1260.11 663.544 1259.76 664.133 1259.76 664.769L1261.55 664.769ZM1340.51 710.361H1342.29C1342.29 709.724 1341.95 709.136 1341.4 708.818L1340.51 710.361ZM1340.53 1470.18L1339.64 1471.72C1340.19 1472.04 1340.87 1472.04 1341.42 1471.72C1341.97 1471.41 1342.31 1470.81 1342.31 1470.18H1340.53ZM1261.57 1424.59H1259.79C1259.79 1425.23 1260.13 1425.81 1260.68 1426.13L1261.57 1424.59ZM1261.57 1306.82H1263.35C1263.35 1306.18 1263.01 1305.59 1262.46 1305.27L1261.57 1306.82ZM1023.59 1169.41L1024.48 1167.86C1023.93 1167.55 1023.25 1167.55 1022.7 1167.86C1022.15 1168.18 1021.81 1168.77 1021.81 1169.41H1023.59ZM1023.59 1287.18L1022.7 1288.72C1023.25 1289.04 1023.93 1289.04 1024.48 1288.72C1025.03 1288.4 1025.37 1287.82 1025.37 1287.18H1023.59ZM944.63 1241.59H942.848C942.848 1242.23 943.188 1242.81 943.739 1243.13L944.63 1241.59ZM1023.58 1078.23H1021.8C1021.8 1078.87 1022.14 1079.45 1022.69 1079.77L1023.58 1078.23ZM1261.56 1215.64L1260.67 1217.18C1261.23 1217.5 1261.9 1217.5 1262.45 1217.18C1263.01 1216.86 1263.35 1216.28 1263.35 1215.64H1261.56ZM1261.56 1090.27H1263.34C1263.34 1089.63 1263 1089.04 1262.45 1088.73L1261.56 1090.27ZM1023.58 952.859L1024.47 951.316C1023.92 950.999 1023.24 950.999 1022.69 951.316C1022.14 951.637 1021.8 952.225 1021.8 952.859H1023.58ZM1023.57 736.312L1024.46 734.769C1023.91 734.451 1023.23 734.451 1022.68 734.769C1022.13 735.087 1021.79 735.675 1021.79 736.312H1023.57ZM1023.58 861.681H1021.79C1021.8 862.318 1022.14 862.906 1022.69 863.223L1023.58 861.681ZM1261.55 873.721H1263.33C1263.33 873.083 1263 872.495 1262.44 872.178L1261.55 873.721ZM1261.56 999.09L1260.67 1000.63C1261.22 1000.95 1261.9 1000.95 1262.45 1000.63C1263 1000.32 1263.34 999.728 1263.34 999.09H1261.56ZM1024.46 525.818L945.497 480.226L943.715 483.312L1022.67 528.904L1024.46 525.818ZM1025.35 645.134L1025.35 527.361H1021.79L1021.79 645.134L1025.35 645.134ZM1262.44 781L1024.46 643.591L1022.68 646.677L1260.66 784.085L1262.44 781ZM1259.76 664.769L1259.77 782.543H1263.33L1263.33 664.769L1259.76 664.769ZM1341.4 708.818L1262.44 663.226L1260.66 666.312L1339.62 711.904L1341.4 708.818ZM1342.31 1470.18L1342.29 710.361H1338.73L1338.75 1470.18H1342.31ZM1260.68 1426.13L1339.64 1471.72L1341.42 1468.64L1262.46 1423.04L1260.68 1426.13ZM1259.79 1306.82L1259.79 1424.59H1263.35L1263.35 1306.82H1259.79ZM1262.46 1305.27L1024.48 1167.86L1022.7 1170.95L1260.68 1308.36L1262.46 1305.27ZM1025.37 1287.18L1025.37 1169.41H1021.81L1021.81 1287.18H1025.37ZM943.739 1243.13L1022.7 1288.72L1024.48 1285.64L945.521 1240.05L943.739 1243.13ZM942.824 481.77L942.848 1241.59H946.412L946.388 481.769L942.824 481.77ZM1022.69 1079.77L1260.67 1217.18L1262.45 1214.09L1024.47 1076.69L1022.69 1079.77ZM1259.78 1090.27L1259.78 1215.64H1263.35L1263.34 1090.27H1259.78ZM1022.69 954.402L1260.67 1091.81L1262.45 1088.73L1024.47 951.316L1022.69 954.402ZM1025.36 1078.23L1025.36 952.859H1021.8L1021.8 1078.23H1025.36ZM1021.79 736.312L1021.79 861.681H1025.36L1025.35 736.312H1021.79ZM1262.44 872.178L1024.46 734.769L1022.68 737.855L1260.66 875.264L1262.44 872.178ZM1263.34 999.09L1263.33 873.721H1259.77L1259.78 999.09H1263.34ZM1022.69 863.223L1260.67 1000.63L1262.45 997.547L1024.47 860.138L1022.69 863.223Z" fill="#EEEEEE"/>
<path d="M1012.22 436.816C1012.22 435.832 1011.43 435.034 1010.44 435.034C1009.46 435.034 1008.66 435.832 1008.66 436.816L1012.22 436.816ZM1008.68 1196.64C1008.69 1197.62 1009.48 1198.42 1010.47 1198.42C1011.45 1198.42 1012.25 1197.62 1012.24 1196.64H1008.68ZM1008.66 436.816L1008.68 1196.64H1012.24L1012.22 436.816L1008.66 436.816Z" fill="#EEEEEE"/>
<path d="M1325.6 1381.1C1325.6 1382.08 1326.4 1382.88 1327.38 1382.88C1328.37 1382.88 1329.16 1382.08 1329.16 1381.1H1325.6ZM1329.16 619.814C1329.16 618.83 1328.37 618.032 1327.38 618.032C1326.4 618.032 1325.6 618.83 1325.6 619.814H1329.16ZM1325.6 619.814V1381.1H1329.16V619.814H1325.6Z" fill="#EEEEEE"/>
</g>
</g>
<defs>
<filter id="filter0_f_1945_485" x="513.694" y="-803.475" width="1586.61" height="1463.95" filterUnits="userSpaceOnUse" color-interpolation-filters="sRGB">
<feFlood flood-opacity="0" result="BackgroundImageFix"/>
<feBlend mode="normal" in="SourceGraphic" in2="BackgroundImageFix" result="shape"/>
<feGaussianBlur stdDeviation="162.948" result="effect1_foregroundBlur_1945_485"/>
</filter>
<filter id="filter1_f_1945_485" x="-979.897" y="410.104" width="1776.14" height="1060.79" filterUnits="userSpaceOnUse" color-interpolation-filters="sRGB">
<feFlood flood-opacity="0" result="BackgroundImageFix"/>
<feBlend mode="normal" in="SourceGraphic" in2="BackgroundImageFix" result="shape"/>
<feGaussianBlur stdDeviation="162.948" result="effect1_foregroundBlur_1945_485"/>
</filter>
<linearGradient id="paint0_linear_1945_485" x1="979.793" y1="134.602" x2="1618.84" y2="409.932" gradientUnits="userSpaceOnUse">
<stop stop-color="#281277"/>
<stop offset="1" stop-color="#ADDB67"/>
</linearGradient>
<linearGradient id="paint1_linear_1945_485" x1="401.734" y1="372.95" x2="552.147" y2="522.089" gradientUnits="userSpaceOnUse">
<stop stop-color="#7C56E9"/>
<stop offset="1" stop-color="#9B40E2"/>
</linearGradient>
<linearGradient id="paint2_linear_1945_485" x1="-481.546" y1="1045.74" x2="-32.5779" y2="1496.94" gradientUnits="userSpaceOnUse">
<stop stop-color="#281277"/>
<stop offset="1" stop-color="#ADDB67"/>
</linearGradient>
<clipPath id="clip0_1945_485">
<rect width="1600" height="900" rx="12" fill="white"/>
</clipPath>
</defs>
</svg>
