<svg width="342" height="98" viewBox="0 0 342 98" fill="none" xmlns="http://www.w3.org/2000/svg">
<path fill-rule="evenodd" clip-rule="evenodd" d="M45 19H15V34H0V64H15V79H45V64H60V34H45V19ZM40.5 38.5H19.5V59.5H40.5V38.5Z" fill="url(#paint0_linear_1714_38390)"/>
<path d="M86.9375 44.216V63.896C86.9375 73.654 92.2675 78.656 100.468 78.656C102.846 78.656 105.06 78.164 107.11 77.18L104.896 69.964C103.666 70.702 102.354 71.112 100.96 71.112C97.2695 71.112 95.4655 68.898 95.4655 64.388V44.216H106.208V36.672H95.4655V19.944L86.9375 25.274V36.672H80.0495V44.216H86.9375ZM120.397 62.666C120.397 56.516 121.463 51.842 123.677 48.562C125.891 45.2 128.515 43.56 131.549 43.56C133.435 43.56 135.075 43.97 136.387 44.79L137.863 37C136.223 36.344 134.501 36.016 132.615 36.016C128.023 36.016 123.103 38.722 120.397 43.56V36.672H111.869V78H120.397V62.666ZM136.997 66.11C136.997 74.31 142.409 78.656 149.707 78.656C155.365 78.656 159.629 76.606 162.499 72.588L163.319 78H170.535V52.334C170.535 41.428 165.041 36.016 154.053 36.016C146.181 36.016 140.195 40.444 138.473 47.414L146.263 49.054C147.657 45.364 150.199 43.56 153.971 43.56C158.645 43.56 162.007 45.856 162.007 50.776V52.58H154.873C144.131 52.58 136.997 57.664 136.997 66.11ZM146.017 66.11C146.017 62.174 149.297 59.714 154.545 59.714H162.007V60.616C162.007 63.978 160.941 66.52 158.727 68.406C156.595 70.21 154.053 71.112 151.183 71.112C147.821 71.112 146.017 69.062 146.017 66.11ZM177.662 78H186.19V61.272C186.19 55.86 187.256 51.596 189.306 48.398C191.438 45.2 193.898 43.56 196.768 43.56C201.032 43.56 203.164 46.102 203.164 51.104V78H211.692V48.398C211.692 40.526 206.854 36.016 199.556 36.016C194.062 36.016 189.142 38.804 186.19 43.724V36.672H177.662V78ZM232.063 36.016C228.373 36.016 225.339 37.164 222.961 39.46C220.583 41.674 219.353 44.462 219.353 47.742C219.353 52.826 222.305 56.598 228.209 59.058C229.521 59.632 232.555 60.698 233.785 61.272C234.441 61.518 235.179 61.928 235.917 62.42C237.475 63.322 238.049 64.306 238.049 65.7C238.049 69.308 236.163 71.112 232.473 71.112C228.619 71.112 225.585 68.652 223.371 63.65L216.155 67.586C218.697 73.572 224.273 78.656 232.145 78.656C236.491 78.656 239.935 77.426 242.559 74.884C245.183 72.342 246.495 69.226 246.495 65.536C246.167 61.026 244.609 58.566 241.329 56.598C239.033 55.04 237.803 54.63 234.933 53.564C231.407 52.252 230.013 51.596 228.619 50.202C227.881 49.464 227.553 48.562 227.553 47.66C227.553 45.036 229.357 43.56 231.653 43.56C234.523 43.56 236.901 44.79 238.869 47.332L244.281 42.576C241.657 38.558 237.065 36.016 232.063 36.016ZM253.176 44.216V78H261.704V44.216H270.806V36.672H261.704V33.966C261.704 29.62 263.59 27.488 267.28 27.488C269.002 27.488 270.642 27.898 272.118 28.636L273.84 21.42C271.954 20.436 269.74 19.944 267.034 19.944C258.424 19.944 253.176 24.782 253.176 34.54V36.672H247.846V44.216H253.176ZM290.904 43.56C296.726 43.56 300.17 47.414 300.908 52.58H280.818C281.802 47.25 285.41 43.56 290.904 43.56ZM309.928 56.024C309.928 46.758 304.106 36.016 290.904 36.016C277.292 36.016 271.634 47.496 271.634 57.336C271.634 67.176 277.292 78.656 290.904 78.656C300.006 78.656 304.844 75.13 309.026 67.012L301.728 64.142C299.678 68.488 295.496 71.112 290.904 71.112C284.426 71.112 280.654 66.192 280.654 59.714H309.928V56.024ZM323.059 62.666C323.059 56.516 324.125 51.842 326.339 48.562C328.553 45.2 331.177 43.56 334.211 43.56C336.097 43.56 337.737 43.97 339.049 44.79L340.525 37C338.885 36.344 337.163 36.016 335.277 36.016C330.685 36.016 325.765 38.722 323.059 43.56V36.672H314.531V78H323.059V62.666Z" fill="white"/>
<defs>
<linearGradient id="paint0_linear_1714_38390" x1="2" y1="16" x2="66" y2="79" gradientUnits="userSpaceOnUse">
<stop stop-color="#7C56E9"/>
<stop offset="1" stop-color="#9B40E2"/>
</linearGradient>
</defs>
</svg>
